<?xml version="1.0" encoding="utf-8"?>
<!-- Generator: Adobe Illustrator 21.0.0, SVG Export Plug-In . SVG Version: 6.00 Build 0)  -->
<svg version="1.1" id="Layer_1" xmlns="http://www.w3.org/2000/svg" xmlns:xlink="http://www.w3.org/1999/xlink" x="0px" y="0px"
	 viewBox="0 0 463.504 180" enable-background="new 0 0 463.504 180" xml:space="preserve">
<g>
	<path fill="#FFFFFF" d="M157.134,97.869c-0.054-0.093-0.132-0.162-0.222-0.203l0.269-1.012c0.052-0.194-0.019-0.402-0.179-0.525
		c-0.161-0.122-0.38-0.138-0.554-0.035l-1.01,0.583l1.646-2.069c0.15-0.188,0.145-0.456-0.012-0.638
		c-0.158-0.182-0.421-0.229-0.629-0.106l-4.082,2.356l4.682-4.819c0.174-0.179,0.189-0.459,0.036-0.656
		c-0.153-0.197-0.428-0.251-0.645-0.126l-2.127,1.228l2.67-1.968c0.213-0.157,0.267-0.454,0.122-0.676s-0.439-0.292-0.668-0.159
		l-3.898,2.251l4.453-3.515c0.206-0.163,0.251-0.456,0.104-0.673c-0.148-0.217-0.438-0.284-0.664-0.152l-3.998,2.308l4.553-3.611
		c0.206-0.163,0.25-0.456,0.103-0.673c-0.147-0.217-0.437-0.285-0.664-0.152l-5.776,3.335l6.354-5.729
		c0.19-0.171,0.22-0.458,0.069-0.665c-0.15-0.206-0.431-0.267-0.654-0.139l-4.851,2.801l5.416-4.518
		c0.199-0.166,0.238-0.457,0.09-0.67c-0.148-0.213-0.434-0.277-0.66-0.147l-4.18,2.414l4.737-3.792
		c0.204-0.163,0.248-0.456,0.101-0.672c-0.148-0.216-0.437-0.283-0.663-0.151l-5.989,3.458l6.57-6.054
		c0.188-0.173,0.215-0.458,0.064-0.664c-0.15-0.205-0.431-0.265-0.653-0.137L145.37,79.86l6.188-5.754
		c0.187-0.173,0.213-0.459,0.062-0.664c-0.15-0.204-0.43-0.262-0.652-0.136L141,79.062l9.146-7.534
		c0.201-0.165,0.241-0.457,0.093-0.671c-0.147-0.213-0.435-0.278-0.661-0.148l-6.142,3.546l6.668-4.44
		c0.225-0.149,0.29-0.45,0.147-0.68c-0.142-0.229-0.441-0.303-0.675-0.169l-19.071,11.011l6.21-5.891
		c0.184-0.174,0.208-0.459,0.057-0.662c-0.151-0.202-0.431-0.261-0.651-0.134l-11.598,6.697l6.211-5.893
		c0.184-0.174,0.208-0.459,0.057-0.662c-0.152-0.203-0.43-0.262-0.651-0.134l-9.676,5.586l5.904-4.758
		c0.203-0.164,0.246-0.457,0.099-0.672c-0.148-0.216-0.437-0.282-0.663-0.15l-1.617,0.934l0.123-0.082
		c0.225-0.15,0.291-0.451,0.148-0.68c-0.142-0.229-0.44-0.304-0.675-0.169l-4.593,2.652l2.549-1.808
		c0.218-0.154,0.276-0.453,0.132-0.678c-0.144-0.225-0.439-0.297-0.671-0.163l-15.247,8.803l10.812-7.96
		c0.214-0.158,0.267-0.455,0.122-0.676c-0.146-0.223-0.438-0.293-0.668-0.16l-6.78,3.915l6.443-4.411
		c0.222-0.152,0.284-0.452,0.141-0.679c-0.144-0.227-0.44-0.3-0.673-0.167l-9.495,5.482l11.425-8.434
		c0.213-0.158,0.267-0.455,0.122-0.676c-0.146-0.222-0.438-0.292-0.668-0.159l-8.346,4.818l9.961-6.934
		c0.22-0.153,0.28-0.452,0.136-0.678c-0.143-0.226-0.439-0.298-0.672-0.165L99.041,76.065l0.342-2.242
		c0.029-0.19-0.053-0.38-0.212-0.488c-0.158-0.108-0.366-0.115-0.532-0.02l-0.506,0.292c-0.239,0.138-0.321,0.444-0.182,0.683
		c0.071,0.123,0.186,0.204,0.314,0.235l-0.368,2.417c-0.029,0.19,0.053,0.38,0.212,0.488c0.159,0.107,0.366,0.117,0.532,0.02
		l9.43-5.444l-9.96,6.933c-0.22,0.153-0.28,0.452-0.136,0.678c0.144,0.226,0.44,0.3,0.672,0.165l10.887-6.286l-11.427,8.436
		c-0.213,0.158-0.267,0.455-0.122,0.676c0.146,0.222,0.438,0.292,0.668,0.159l5.914-3.415l-6.442,4.41
		c-0.222,0.152-0.284,0.452-0.141,0.679c0.145,0.228,0.441,0.302,0.673,0.167l10.273-5.931L98.118,86.64
		c-0.214,0.158-0.267,0.455-0.122,0.676c0.146,0.223,0.438,0.292,0.668,0.16l13.751-7.939l-2.529,1.793l-1.367,0.789
		c-0.133,0.077-0.211,0.207-0.236,0.348l-10.151,7.198c-0.218,0.154-0.276,0.453-0.132,0.678s0.44,0.297,0.671,0.163l5.229-3.019
		l-5.798,4.99c-0.196,0.168-0.231,0.458-0.082,0.668c0.149,0.211,0.434,0.275,0.658,0.144l5.392-3.112l-5.963,5.205
		c-0.194,0.17-0.228,0.458-0.078,0.668s0.434,0.273,0.657,0.142l6.337-3.658l-5.742,5.568c-0.181,0.176-0.203,0.459-0.051,0.661
		c0.098,0.129,0.247,0.198,0.399,0.198c0.085,0,0.171-0.021,0.25-0.067l6.31-3.643l-2.317,2.867
		c-0.152,0.188-0.148,0.456,0.009,0.64c0.157,0.184,0.422,0.229,0.63,0.107l3.058-1.766l-0.236,1.216
		c-0.038,0.192,0.041,0.39,0.201,0.503c0.159,0.113,0.371,0.123,0.541,0.025l0.445-0.258c0.239-0.139,0.321-0.444,0.182-0.684
		c-0.055-0.095-0.136-0.165-0.23-0.206l0.288-1.482c0.038-0.192-0.041-0.389-0.2-0.503c-0.161-0.113-0.372-0.124-0.541-0.025
		l-1.678,0.969l2.317-2.867c0.152-0.188,0.148-0.456-0.009-0.64c-0.155-0.183-0.42-0.23-0.63-0.107l-5.144,2.97l5.742-5.569
		c0.181-0.176,0.203-0.459,0.051-0.66c-0.151-0.202-0.429-0.258-0.649-0.132l-5.383,3.108l5.961-5.205
		c0.194-0.169,0.228-0.458,0.078-0.667c-0.149-0.209-0.433-0.271-0.657-0.143l-5.223,3.015l5.799-4.99
		c0.196-0.168,0.231-0.458,0.082-0.668c-0.148-0.209-0.432-0.272-0.658-0.144l-0.562,0.325l2.971-2.107l0.208-0.12l-0.121,0.081
		c-0.225,0.15-0.291,0.451-0.148,0.68c0.142,0.23,0.441,0.306,0.675,0.169l9.678-5.588l-5.905,4.759
		c-0.203,0.164-0.246,0.457-0.099,0.672c0.147,0.214,0.436,0.281,0.663,0.15l11.601-6.698l-6.211,5.893
		c-0.184,0.174-0.208,0.459-0.057,0.662c0.152,0.203,0.431,0.262,0.651,0.134l11.597-6.696l-6.21,5.891
		c-0.184,0.174-0.208,0.459-0.057,0.662c0.152,0.203,0.431,0.261,0.651,0.134l9.169-5.294l-6.668,4.44
		c-0.225,0.149-0.29,0.45-0.147,0.68s0.442,0.305,0.675,0.169l14.483-8.362l-9.146,7.534c-0.201,0.165-0.241,0.457-0.093,0.671
		c0.147,0.213,0.434,0.279,0.661,0.148l11.365-6.562l-6.188,5.753c-0.187,0.173-0.213,0.458-0.062,0.664
		c0.152,0.204,0.432,0.264,0.652,0.136l10.943-6.318l-6.569,6.053c-0.188,0.173-0.215,0.458-0.064,0.664
		c0.15,0.206,0.432,0.265,0.653,0.137l4.184-2.416l-4.738,3.792c-0.204,0.163-0.248,0.456-0.101,0.672
		c0.147,0.215,0.436,0.281,0.663,0.151l4.856-2.804l-5.417,4.518c-0.199,0.166-0.238,0.457-0.09,0.67
		c0.149,0.213,0.435,0.277,0.66,0.147l5.78-3.337l-6.354,5.729c-0.19,0.171-0.22,0.458-0.069,0.665
		c0.15,0.208,0.433,0.269,0.654,0.139l4-2.309l-4.552,3.61c-0.206,0.163-0.25,0.456-0.103,0.673
		c0.146,0.216,0.436,0.283,0.664,0.151l3.9-2.251l-4.452,3.514c-0.206,0.162-0.251,0.456-0.104,0.673
		c0.148,0.218,0.437,0.286,0.664,0.152l2.132-1.23l-2.673,1.971c-0.213,0.157-0.267,0.454-0.122,0.676
		c0.146,0.223,0.438,0.294,0.668,0.159l6.759-3.902l-4.682,4.819c-0.174,0.179-0.189,0.459-0.036,0.656
		c0.098,0.125,0.245,0.192,0.395,0.192c0.085,0,0.171-0.021,0.25-0.067l4.916-2.838l-1.646,2.069
		c-0.15,0.188-0.145,0.456,0.012,0.638c0.158,0.182,0.421,0.229,0.629,0.106l2.249-1.298l-0.191,0.721
		c-0.052,0.194,0.019,0.402,0.179,0.524c0.161,0.123,0.379,0.137,0.554,0.036l0.504-0.291
		C157.19,98.414,157.272,98.108,157.134,97.869z"/>
	<path fill="#FFFFFF" d="M103.93,73.05c0.085,0,0.171-0.021,0.25-0.067l14.723-8.5c0.239-0.138,0.321-0.444,0.183-0.683
		c-0.139-0.24-0.445-0.321-0.683-0.183l-3.446,1.99l4.747-3.25c0.222-0.152,0.284-0.452,0.141-0.679
		c-0.144-0.227-0.44-0.3-0.673-0.167l-8.682,5.013l10.822-8.519c0.206-0.163,0.252-0.456,0.105-0.673s-0.436-0.285-0.664-0.153
		l-3.728,2.152l5.052-3.475c0.221-0.152,0.283-0.452,0.14-0.679c-0.142-0.226-0.44-0.3-0.673-0.166l-5.507,3.18l7.012-4.981
		c0.218-0.155,0.275-0.453,0.131-0.678c-0.144-0.225-0.44-0.297-0.671-0.163l-7.209,4.162l8.979-6.673
		c0.212-0.158,0.265-0.455,0.12-0.676s-0.438-0.291-0.668-0.159l-6.951,4.014l8.673-6.396c0.213-0.157,0.267-0.454,0.122-0.676
		c-0.145-0.222-0.438-0.292-0.668-0.159l-8.698,5.021l10.852-8.563c0.206-0.163,0.251-0.456,0.104-0.673
		c-0.148-0.217-0.437-0.283-0.664-0.152l-3.109,1.795l4.387-2.991c0.222-0.151,0.285-0.452,0.142-0.679
		c-0.143-0.228-0.439-0.3-0.673-0.167l-0.101,0.059l1.206-0.795c0.226-0.149,0.292-0.45,0.15-0.68
		c-0.142-0.23-0.441-0.305-0.675-0.17l-7.097,4.098l8.849-6.56c0.213-0.158,0.266-0.455,0.12-0.676
		c-0.146-0.221-0.438-0.292-0.668-0.159l-8.614,4.974l10.747-8.458c0.206-0.162,0.252-0.456,0.105-0.673
		c-0.146-0.217-0.437-0.284-0.664-0.153l-7.444,4.298l9.27-6.956c0.211-0.159,0.263-0.455,0.117-0.675
		c-0.144-0.218-0.432-0.288-0.661-0.161l0.774-0.51c0.011,0.049,0.022,0.098,0.048,0.144c0.138,0.239,0.444,0.32,0.683,0.183
		l6.097-3.52l-3.753,2.669c-0.217,0.154-0.275,0.453-0.131,0.677c0.144,0.224,0.44,0.297,0.671,0.163l8.137-4.698l-6.647,5.349
		c-0.204,0.164-0.247,0.457-0.099,0.672c0.147,0.215,0.435,0.28,0.663,0.15l2.693-1.555l-3.232,2.306
		c-0.217,0.155-0.274,0.453-0.13,0.678c0.144,0.224,0.438,0.296,0.67,0.163l6.224-3.593l-6.786,5.504
		c-0.203,0.164-0.245,0.457-0.097,0.671c0.148,0.216,0.437,0.282,0.662,0.15l6.548-3.781l-7.113,5.888
		c-0.2,0.166-0.24,0.458-0.092,0.671c0.148,0.212,0.435,0.278,0.661,0.147l1.907-1.101l-2.442,1.714
		c-0.219,0.154-0.278,0.453-0.134,0.678c0.144,0.225,0.44,0.299,0.671,0.164l2.436-1.406l-2.974,2.109
		c-0.218,0.154-0.275,0.453-0.131,0.678c0.144,0.225,0.439,0.297,0.671,0.163l2.669-1.541l-3.208,2.287
		c-0.217,0.155-0.274,0.453-0.13,0.678c0.144,0.224,0.44,0.296,0.67,0.163l7.097-4.098l-7.67,6.612
		c-0.195,0.168-0.23,0.458-0.081,0.668c0.15,0.21,0.434,0.274,0.658,0.144l5.602-3.234l-6.157,4.833
		c-0.207,0.162-0.252,0.456-0.105,0.673c0.147,0.217,0.437,0.284,0.664,0.153l6.805-3.929l-7.373,6.214
		c-0.198,0.167-0.236,0.458-0.087,0.669c0.148,0.213,0.435,0.276,0.659,0.146l6.729-3.885l-7.297,6.117
		c-0.199,0.167-0.237,0.458-0.088,0.67c0.148,0.212,0.435,0.277,0.66,0.146l1.228-0.709l-1.762,1.222
		c-0.22,0.152-0.281,0.452-0.137,0.678c0.144,0.227,0.44,0.3,0.672,0.166l2.525-1.458l-3.063,2.177
		c-0.218,0.155-0.275,0.453-0.131,0.678s0.439,0.296,0.671,0.163l4.398-2.54l-4.945,3.699c-0.212,0.159-0.264,0.455-0.118,0.676
		c0.146,0.221,0.439,0.291,0.667,0.158l6.98-4.03l-7.551,6.45c-0.196,0.168-0.233,0.458-0.083,0.669
		c0.148,0.211,0.433,0.273,0.658,0.145l6.09-3.516l-6.65,5.355c-0.204,0.164-0.247,0.457-0.099,0.672
		c0.147,0.215,0.435,0.28,0.663,0.15l6.264-3.616l-6.825,5.552c-0.202,0.165-0.244,0.457-0.096,0.671
		c0.147,0.215,0.436,0.28,0.662,0.149l3.262-1.883l-3.803,2.751c-0.216,0.156-0.271,0.454-0.126,0.677
		c0.145,0.223,0.438,0.294,0.669,0.161l3.161-1.825l-3.702,2.671c-0.216,0.156-0.272,0.453-0.127,0.677
		c0.145,0.224,0.439,0.295,0.67,0.162l4.762-2.75l-5.311,4.025c-0.21,0.159-0.261,0.455-0.115,0.675
		c0.146,0.22,0.437,0.289,0.667,0.157l5.17-2.985l-5.723,4.408c-0.208,0.161-0.257,0.456-0.11,0.674
		c0.096,0.143,0.254,0.222,0.416,0.222c0.085,0,0.171-0.021,0.25-0.067l11.687-6.748c0.239-0.138,0.321-0.444,0.183-0.683
		c-0.139-0.24-0.445-0.322-0.683-0.183l-5.171,2.985l5.724-4.408c0.208-0.161,0.257-0.456,0.11-0.674
		c-0.147-0.218-0.437-0.286-0.666-0.155l-4.761,2.749l5.31-4.024c0.21-0.159,0.261-0.455,0.115-0.675
		c-0.146-0.221-0.438-0.29-0.667-0.157l-3.159,1.824l3.7-2.67c0.216-0.156,0.272-0.453,0.127-0.677
		c-0.145-0.224-0.439-0.295-0.67-0.162l-3.264,1.884l3.805-2.752c0.216-0.156,0.271-0.454,0.126-0.677
		c-0.145-0.223-0.438-0.295-0.669-0.161l-6.262,3.615l6.824-5.551c0.202-0.165,0.244-0.457,0.096-0.671
		c-0.147-0.215-0.435-0.279-0.662-0.149l-6.091,3.517l6.652-5.356c0.204-0.164,0.247-0.457,0.099-0.672
		c-0.148-0.216-0.437-0.282-0.663-0.15l-6.979,4.03l7.551-6.45c0.196-0.168,0.233-0.458,0.083-0.669
		c-0.15-0.211-0.434-0.275-0.658-0.145l-4.397,2.539l4.944-3.698c0.212-0.159,0.264-0.455,0.118-0.676
		c-0.146-0.22-0.438-0.29-0.667-0.158l-2.528,1.459l3.065-2.179c0.218-0.155,0.275-0.453,0.131-0.678s-0.439-0.296-0.671-0.163
		l-1.228,0.709l1.762-1.222c0.22-0.152,0.281-0.452,0.137-0.678c-0.143-0.226-0.439-0.298-0.672-0.166l-6.728,3.884l7.296-6.116
		c0.199-0.167,0.237-0.458,0.088-0.67c-0.148-0.212-0.433-0.276-0.66-0.146l-6.805,3.929l7.374-6.215
		c0.198-0.167,0.236-0.458,0.087-0.669c-0.148-0.212-0.434-0.276-0.659-0.146l-5.6,3.233l6.156-4.833
		c0.207-0.162,0.252-0.456,0.105-0.673c-0.146-0.217-0.436-0.284-0.664-0.153l-7.098,4.098l7.67-6.613
		c0.195-0.168,0.23-0.458,0.081-0.668c-0.15-0.21-0.433-0.272-0.658-0.144l-2.667,1.54l3.206-2.286
		c0.217-0.155,0.274-0.453,0.13-0.678c-0.145-0.224-0.439-0.296-0.67-0.163l-2.434,1.405l2.972-2.108
		c0.218-0.154,0.275-0.453,0.131-0.678s-0.44-0.297-0.671-0.163l-1.91,1.103l2.445-1.717c0.219-0.154,0.278-0.453,0.134-0.678
		c-0.143-0.226-0.439-0.297-0.671-0.164l-6.547,3.78l7.113-5.888c0.2-0.166,0.24-0.458,0.092-0.671
		c-0.148-0.213-0.436-0.277-0.661-0.147l-6.223,3.593l6.785-5.504c0.203-0.164,0.245-0.457,0.097-0.671
		c-0.147-0.215-0.435-0.28-0.662-0.15l-2.691,1.554l3.23-2.304c0.217-0.155,0.274-0.453,0.13-0.678
		c-0.144-0.225-0.438-0.296-0.67-0.163l-6.087,3.514l6.647-5.35c0.204-0.164,0.247-0.457,0.099-0.672
		c-0.148-0.215-0.437-0.282-0.663-0.15l-4.612,2.663l3.755-2.671c0.217-0.154,0.275-0.453,0.131-0.677
		c-0.144-0.225-0.439-0.297-0.671-0.163l-10.499,6.061l7.89-5.2c0.226-0.149,0.292-0.45,0.15-0.68
		c-0.142-0.23-0.442-0.305-0.675-0.17l-15.389,8.885l11.741-8.036c0.222-0.152,0.284-0.452,0.141-0.679
		c-0.144-0.227-0.44-0.3-0.673-0.167l-11.916,6.879l8.545-6.035c0.218-0.154,0.277-0.453,0.132-0.678
		c-0.144-0.224-0.438-0.296-0.671-0.164l-10.787,6.228l6.723-5.401c0.204-0.164,0.247-0.457,0.1-0.672
		c-0.147-0.216-0.436-0.283-0.663-0.151l-6.272,3.622l3.89-2.78c0.217-0.155,0.274-0.453,0.13-0.677
		c-0.144-0.225-0.439-0.297-0.67-0.163l-9.819,5.669l5.955-4.844c0.202-0.165,0.244-0.457,0.096-0.671
		c-0.147-0.215-0.434-0.279-0.662-0.149l-8.527,4.923l4.712-4.11c0.194-0.169,0.228-0.458,0.078-0.667
		c-0.149-0.209-0.432-0.271-0.657-0.143l-5.469,3.157l2.308-2.373c0.174-0.179,0.189-0.459,0.036-0.656
		c-0.153-0.197-0.428-0.25-0.645-0.126l-3.889,2.246l0.31-1.721c0.034-0.191-0.045-0.386-0.205-0.498
		c-0.159-0.113-0.369-0.122-0.538-0.024l-0.5,0.289c-0.239,0.138-0.321,0.444-0.183,0.683c0.066,0.114,0.17,0.193,0.288,0.229
		l-0.347,1.925c-0.034,0.191,0.045,0.386,0.205,0.498c0.158,0.111,0.368,0.121,0.538,0.024l1.7-0.981l-2.308,2.373
		c-0.174,0.179-0.189,0.459-0.036,0.656c0.153,0.197,0.428,0.25,0.645,0.126l4.134-2.387l-4.712,4.11
		c-0.194,0.169-0.228,0.458-0.078,0.667c0.15,0.21,0.434,0.272,0.657,0.143l7.56-4.365l-5.955,4.844
		c-0.202,0.165-0.244,0.457-0.096,0.671c0.147,0.214,0.436,0.281,0.662,0.149l6.302-3.639l-3.889,2.779
		c-0.217,0.155-0.274,0.453-0.13,0.677s0.439,0.296,0.67,0.163l9.571-5.526l-6.724,5.402c-0.204,0.164-0.247,0.457-0.1,0.672
		c0.147,0.215,0.435,0.281,0.663,0.151l6.956-4.016l-8.543,6.035c-0.218,0.154-0.277,0.453-0.133,0.678s0.44,0.297,0.671,0.164
		l10.086-5.823l-11.741,8.036c-0.222,0.152-0.284,0.452-0.141,0.679c0.145,0.228,0.442,0.302,0.673,0.167l12.048-6.956
		l-13.629,8.982c-0.226,0.149-0.292,0.45-0.15,0.68s0.441,0.306,0.675,0.17l7.438-4.294l-9.271,6.957
		c-0.211,0.159-0.263,0.455-0.117,0.675c0.146,0.22,0.438,0.291,0.667,0.158l8.604-4.968l-10.747,8.458
		c-0.206,0.162-0.252,0.456-0.105,0.673c0.147,0.218,0.437,0.285,0.664,0.153l7.089-4.093l-8.849,6.561
		c-0.213,0.158-0.266,0.455-0.12,0.676c0.146,0.221,0.438,0.291,0.668,0.159l0.093-0.054l-1.202,0.793
		c-0.226,0.149-0.292,0.45-0.15,0.68c0.142,0.23,0.441,0.305,0.675,0.17l3.107-1.794l-4.39,2.993
		c-0.222,0.151-0.285,0.452-0.142,0.679c0.144,0.228,0.441,0.302,0.673,0.167l8.686-5.015l-10.851,8.563
		c-0.206,0.163-0.251,0.456-0.104,0.673c0.147,0.216,0.436,0.284,0.664,0.152l6.946-4.01l-8.676,6.398
		c-0.213,0.157-0.267,0.454-0.122,0.676c0.145,0.222,0.439,0.292,0.668,0.159l7.2-4.157l-8.977,6.672
		c-0.212,0.158-0.265,0.455-0.12,0.676c0.146,0.222,0.44,0.292,0.668,0.159l5.502-3.177l-7.013,4.982
		c-0.218,0.155-0.275,0.453-0.131,0.678c0.144,0.226,0.44,0.296,0.671,0.163l3.724-2.15l-5.054,3.476
		c-0.221,0.152-0.283,0.452-0.14,0.679c0.144,0.227,0.441,0.301,0.673,0.166l8.671-5.007l-10.822,8.519
		c-0.206,0.163-0.252,0.456-0.105,0.673c0.147,0.217,0.437,0.284,0.664,0.153l3.438-1.985l-4.745,3.249
		c-0.222,0.152-0.284,0.452-0.141,0.679C103.601,72.967,103.763,73.05,103.93,73.05z"/>
</g>
<path fill="#FFFFFF" d="M221.513,81.985c-0.061-0.104-0.153-0.179-0.258-0.218l0.307-1.415c0.042-0.193-0.034-0.393-0.194-0.51
	c-0.16-0.117-0.374-0.128-0.545-0.029l-1.75,1.01l2.385-3.076c0.146-0.189,0.139-0.455-0.018-0.635
	c-0.158-0.181-0.421-0.223-0.627-0.104l-5.157,2.978l5.74-5.438c0.184-0.174,0.208-0.458,0.057-0.662
	c-0.152-0.204-0.431-0.262-0.651-0.134l-7.445,4.298l5.229-3.946c0.211-0.159,0.262-0.455,0.116-0.675
	c-0.146-0.221-0.438-0.29-0.667-0.157l-8.014,4.627l5.054-3.778c0.212-0.158,0.264-0.455,0.118-0.676
	c-0.146-0.22-0.438-0.29-0.667-0.158l-5.09,2.939l4.982-3.727c0.212-0.159,0.264-0.455,0.118-0.676
	c-0.146-0.22-0.438-0.289-0.667-0.158l-3.635,2.099l4.179-3.051c0.214-0.157,0.269-0.454,0.124-0.677
	c-0.145-0.223-0.439-0.294-0.669-0.16l-5.876,3.393l6.436-5.113c0.205-0.163,0.25-0.457,0.103-0.673
	c-0.148-0.217-0.437-0.283-0.664-0.152l-5.115,2.953l5.668-4.349c0.209-0.16,0.258-0.455,0.111-0.674s-0.437-0.288-0.666-0.155
	l-3.363,1.941l3.905-2.83c0.215-0.156,0.271-0.454,0.126-0.677s-0.439-0.295-0.669-0.161l-6.767,3.907l7.337-6.152
	c0.199-0.167,0.237-0.458,0.088-0.67c-0.148-0.212-0.433-0.275-0.66-0.146l-4.261,2.46l4.808-3.576
	c0.212-0.158,0.265-0.455,0.12-0.676c-0.145-0.222-0.438-0.291-0.668-0.159l-7.17,4.14l7.746-6.699
	c0.195-0.169,0.229-0.458,0.08-0.668c-0.149-0.209-0.433-0.271-0.657-0.143l-0.009,0.005l0.54-0.367
	c0.222-0.151,0.285-0.452,0.142-0.679c-0.143-0.228-0.44-0.301-0.673-0.167l-4.81,2.777l5.36-4.063
	c0.21-0.16,0.26-0.455,0.114-0.675c-0.146-0.22-0.438-0.289-0.667-0.157l-3.053,1.763l3.594-2.584
	c0.216-0.155,0.272-0.453,0.128-0.677s-0.438-0.294-0.67-0.162l-2.4,1.386l2.938-2.082c0.218-0.155,0.276-0.453,0.132-0.678
	c-0.145-0.225-0.44-0.296-0.671-0.163l-4.234,2.445l4.782-3.553c0.212-0.158,0.265-0.455,0.12-0.676s-0.438-0.291-0.668-0.159
	l-3.966,2.29l4.512-3.325c0.214-0.157,0.267-0.454,0.122-0.676c-0.146-0.222-0.438-0.292-0.668-0.159l-6.241,3.603l6.804-5.513
	c0.203-0.165,0.245-0.457,0.097-0.672c-0.148-0.214-0.436-0.28-0.662-0.15l-0.688,0.397l1.22-0.838
	c0.221-0.152,0.283-0.452,0.14-0.679c-0.143-0.227-0.439-0.3-0.673-0.167l-6.153,3.553l6.716-5.415
	c0.203-0.164,0.246-0.457,0.099-0.672c-0.148-0.216-0.437-0.282-0.663-0.15l-6.952,4.014l7.524-6.394
	c0.197-0.167,0.234-0.458,0.085-0.669c-0.149-0.211-0.435-0.275-0.659-0.145l-0.898,0.519l1.431-0.987
	c0.221-0.152,0.282-0.452,0.139-0.679c-0.024-0.038-0.057-0.064-0.088-0.093c0.17-0.159,0.217-0.415,0.091-0.62
	c-0.142-0.231-0.443-0.308-0.676-0.172l-16.685,9.633l17.213-11.632c0.223-0.15,0.287-0.451,0.144-0.679
	c-0.144-0.229-0.441-0.303-0.674-0.168l-16.743,9.667l17.279-12.175c0.218-0.154,0.277-0.453,0.133-0.678
	c-0.144-0.225-0.439-0.297-0.671-0.164l-3.703,2.138l4.221-2.692c0.229-0.146,0.299-0.449,0.158-0.681
	c-0.141-0.232-0.441-0.309-0.677-0.174l-4.599,2.655l5.12-3.306c0.228-0.147,0.296-0.449,0.155-0.681
	c-0.142-0.231-0.441-0.308-0.677-0.172l-4.731,2.732l5.254-3.428c0.227-0.148,0.294-0.45,0.153-0.681
	c-0.142-0.231-0.443-0.307-0.676-0.171l-7.583,4.378l8.114-5.528c0.222-0.151,0.285-0.451,0.142-0.679
	c-0.143-0.228-0.439-0.301-0.673-0.167l-7.859,4.538l8.396-5.924c0.219-0.154,0.277-0.453,0.133-0.678
	c-0.144-0.224-0.438-0.297-0.671-0.164l-10.303,5.948l7.365-6.137c0.199-0.167,0.238-0.458,0.09-0.67
	c-0.148-0.212-0.434-0.276-0.66-0.147l-7.143,4.124l2.35-3.389c0.134-0.192,0.116-0.452-0.043-0.624
	c-0.157-0.171-0.415-0.21-0.618-0.094l-0.766,0.442c-0.239,0.138-0.321,0.444-0.183,0.683c0.017,0.028,0.035,0.055,0.056,0.079
	l-2.89,4.167c-0.134,0.192-0.116,0.452,0.043,0.624c0.159,0.172,0.416,0.212,0.618,0.095l4.028-2.326l-7.365,6.137
	c-0.199,0.167-0.238,0.458-0.09,0.67c0.149,0.213,0.436,0.278,0.66,0.147l5.824-3.363l-8.395,5.923
	c-0.219,0.154-0.277,0.453-0.133,0.678c0.145,0.225,0.441,0.298,0.671,0.164l5.761-3.326l-8.114,5.528
	c-0.222,0.151-0.285,0.451-0.142,0.679s0.441,0.302,0.673,0.167l3.319-1.917l-5.255,3.428c-0.227,0.148-0.294,0.45-0.153,0.681
	c0.141,0.231,0.44,0.306,0.676,0.171l3.229-1.864l-5.123,3.308c-0.228,0.147-0.297,0.449-0.156,0.681
	c0.142,0.232,0.443,0.309,0.677,0.172l2.407-1.39l-4.211,2.687c-0.229,0.146-0.299,0.449-0.158,0.681
	c0.141,0.233,0.444,0.31,0.677,0.174l13.686-7.901l-17.28,12.176c-0.218,0.154-0.277,0.453-0.133,0.678
	c0.145,0.226,0.44,0.298,0.671,0.164l14.086-8.133L184.884,49.46c-0.223,0.15-0.287,0.451-0.144,0.679
	c0.143,0.228,0.44,0.302,0.674,0.168l12.37-7.142l-14.924,9.69c-0.227,0.147-0.295,0.45-0.154,0.681
	c0.142,0.23,0.442,0.307,0.676,0.172l0.471-0.272l-2.187,1.417c-0.228,0.147-0.296,0.449-0.154,0.681
	c0.141,0.231,0.441,0.307,0.676,0.172l7.605-4.391l-10.322,7.253c-0.009-0.016-0.011-0.035-0.022-0.05
	c-0.148-0.217-0.437-0.284-0.664-0.152l-6.914,3.992l7.485-6.342c0.197-0.167,0.234-0.458,0.085-0.669
	c-0.148-0.211-0.434-0.275-0.659-0.146l-4.444,2.566l4.992-3.735c0.212-0.159,0.264-0.455,0.118-0.676
	c-0.145-0.221-0.437-0.29-0.667-0.158l-6.493,3.749l7.059-5.809c0.201-0.166,0.241-0.457,0.093-0.671
	c-0.148-0.214-0.435-0.278-0.661-0.148l-7.085,4.091l7.658-6.576c0.196-0.168,0.231-0.458,0.082-0.668
	c-0.149-0.211-0.434-0.274-0.658-0.144l-5.849,3.377l6.408-5.083c0.206-0.163,0.25-0.456,0.103-0.673
	c-0.147-0.217-0.437-0.284-0.664-0.152l-4.172,2.409l4.718-3.499c0.213-0.158,0.266-0.455,0.12-0.676
	c-0.145-0.222-0.438-0.292-0.668-0.159L171.96,46.5l7.385-6.213c0.198-0.167,0.236-0.458,0.087-0.67
	c-0.148-0.212-0.434-0.276-0.659-0.146l-7.228,4.173l7.804-6.781c0.194-0.169,0.229-0.458,0.079-0.668
	c-0.15-0.208-0.432-0.272-0.657-0.143l-2.379,1.374l2.917-2.065c0.218-0.154,0.276-0.453,0.132-0.678
	c-0.145-0.226-0.439-0.297-0.671-0.164l-1.591,0.918l2.126-1.482c0.22-0.153,0.279-0.452,0.136-0.678
	c-0.143-0.226-0.44-0.298-0.672-0.165l-5.404,3.12l5.959-4.628c0.208-0.162,0.255-0.456,0.108-0.674s-0.437-0.285-0.665-0.154
	l-3.345,1.931l3.887-2.815c0.215-0.156,0.271-0.454,0.126-0.677c-0.145-0.224-0.439-0.295-0.669-0.161l-6.451,3.724l7.016-5.76
	c0.201-0.165,0.242-0.457,0.094-0.671c-0.148-0.214-0.435-0.278-0.661-0.148l-6.937,4.005l7.508-6.375
	c0.197-0.167,0.234-0.458,0.085-0.669s-0.436-0.275-0.659-0.145l-7.257,4.19l7.833-6.826c0.194-0.169,0.228-0.458,0.078-0.667
	c-0.149-0.209-0.432-0.271-0.657-0.143l-6.128,3.538l6.689-5.388c0.204-0.164,0.247-0.457,0.099-0.672
	c-0.148-0.215-0.436-0.282-0.663-0.15l-10.154,5.862l6.125-5.096c0.2-0.166,0.239-0.457,0.09-0.67
	c-0.148-0.213-0.434-0.277-0.66-0.147l-6.063,3.5l3.535-2.663c0.211-0.159,0.262-0.455,0.116-0.675
	c-0.146-0.221-0.438-0.289-0.667-0.157l-7.455,4.304l3.096-3.533c0.161-0.184,0.166-0.458,0.01-0.647
	c-0.155-0.188-0.425-0.238-0.636-0.116l-4.166,2.405l0.322-1.879c0.033-0.191-0.048-0.384-0.207-0.495s-0.368-0.12-0.536-0.023
	l-0.501,0.29c-0.239,0.138-0.321,0.444-0.183,0.683c0.067,0.117,0.175,0.196,0.295,0.23l-0.355,2.075
	c-0.033,0.191,0.048,0.384,0.207,0.495c0.159,0.111,0.367,0.12,0.536,0.023l2.47-1.426l-3.096,3.533
	c-0.161,0.184-0.166,0.458-0.01,0.647c0.154,0.188,0.424,0.238,0.636,0.116l2.985-1.723l-3.536,2.663
	c-0.211,0.159-0.262,0.455-0.116,0.675c0.146,0.221,0.438,0.29,0.667,0.157l8.082-4.667l-6.125,5.096
	c-0.2,0.166-0.239,0.457-0.09,0.67c0.149,0.213,0.436,0.277,0.66,0.147l9.627-5.559l-6.689,5.388
	c-0.204,0.164-0.247,0.457-0.099,0.672c0.147,0.215,0.435,0.281,0.663,0.15l7.257-4.189l-7.833,6.826
	c-0.194,0.169-0.228,0.458-0.078,0.667c0.149,0.209,0.433,0.273,0.657,0.143l6.937-4.005l-7.508,6.375
	c-0.197,0.167-0.234,0.458-0.085,0.669c0.148,0.211,0.433,0.274,0.659,0.145l6.45-3.724l-7.016,5.76
	c-0.201,0.165-0.242,0.457-0.094,0.671c0.148,0.213,0.435,0.279,0.661,0.148l3.347-1.933l-3.89,2.817
	c-0.215,0.156-0.271,0.454-0.126,0.677c0.145,0.223,0.438,0.294,0.669,0.161l5.402-3.119l-5.958,4.627
	c-0.208,0.162-0.255,0.456-0.108,0.674c0.147,0.219,0.437,0.287,0.665,0.154l1.591-0.918l-2.126,1.482
	c-0.22,0.153-0.279,0.452-0.136,0.678c0.144,0.227,0.44,0.299,0.672,0.165l2.377-1.373l-2.916,2.064
	c-0.218,0.154-0.276,0.453-0.132,0.678c0.144,0.225,0.44,0.297,0.671,0.164l7.228-4.173l-7.804,6.782
	c-0.194,0.169-0.229,0.458-0.079,0.668c0.15,0.209,0.434,0.273,0.657,0.143l6.816-3.935l-7.386,6.214
	c-0.198,0.167-0.236,0.458-0.087,0.67c0.148,0.211,0.435,0.276,0.659,0.146l4.168-2.407L167,51.292
	c-0.213,0.158-0.266,0.455-0.12,0.676c0.146,0.221,0.438,0.292,0.668,0.159l5.849-3.377l-6.408,5.083
	c-0.206,0.163-0.25,0.456-0.103,0.673c0.147,0.216,0.436,0.283,0.664,0.152l7.085-4.09l-7.659,6.576
	c-0.196,0.168-0.231,0.458-0.082,0.668c0.148,0.21,0.433,0.273,0.658,0.144l6.492-3.749l-7.059,5.809
	c-0.201,0.166-0.241,0.457-0.093,0.671c0.148,0.214,0.435,0.279,0.661,0.148l4.443-2.565l-4.991,3.734
	c-0.212,0.159-0.264,0.455-0.118,0.676c0.146,0.221,0.438,0.291,0.667,0.158l6.915-3.992l-7.486,6.343
	c-0.197,0.167-0.234,0.458-0.085,0.669c0.148,0.212,0.434,0.275,0.659,0.146l5.886-3.398l-6.446,5.123
	c-0.205,0.163-0.25,0.457-0.103,0.673c0.147,0.217,0.436,0.283,0.664,0.152l4.137-2.389l-4.652,2.917
	c-0.231,0.145-0.303,0.448-0.163,0.682c0.14,0.233,0.441,0.311,0.678,0.175l9.134-5.274l-9.654,6.231
	c-0.228,0.147-0.297,0.449-0.156,0.681c0.142,0.231,0.442,0.308,0.677,0.172l11.328-6.54l-11.854,7.89
	c-0.225,0.149-0.291,0.45-0.148,0.68c0.143,0.23,0.442,0.305,0.675,0.169l13.87-8.008l-14.409,10.276
	c-0.217,0.155-0.274,0.453-0.13,0.678c0.144,0.224,0.438,0.296,0.67,0.163l11.975-6.914l-12.518,9.153
	c-0.215,0.157-0.269,0.454-0.124,0.677c0.145,0.222,0.438,0.292,0.669,0.16l4.904-2.832l-5.433,3.672
	c-0.223,0.15-0.287,0.451-0.144,0.679c0.142,0.229,0.439,0.302,0.674,0.168l6.751-3.898l-5.894,4.222
	c-0.217,0.155-0.274,0.453-0.129,0.677c0.095,0.148,0.256,0.229,0.421,0.229c0.085,0,0.171-0.021,0.25-0.067l8.427-4.865
	l-4.409,4.049c-0.188,0.172-0.215,0.458-0.064,0.664c0.15,0.205,0.431,0.265,0.653,0.137l2.794-1.613l-0.721,0.847
	c-0.158,0.186-0.159,0.458-0.003,0.645c0.156,0.187,0.424,0.235,0.634,0.113l1.158-0.668c0.239-0.138,0.321-0.444,0.183-0.683
	c-0.021-0.035-0.044-0.067-0.072-0.096l1.458-1.713c0.158-0.186,0.159-0.458,0.003-0.645c-0.156-0.186-0.423-0.234-0.634-0.113
	l-1.367,0.79l4.408-4.049c0.188-0.172,0.215-0.458,0.064-0.664c-0.151-0.205-0.431-0.266-0.653-0.137l-3.527,2.036l5.895-4.223
	c0.217-0.155,0.274-0.453,0.129-0.677s-0.44-0.295-0.67-0.162l-3.339,1.928l5.434-3.673c0.223-0.15,0.287-0.451,0.144-0.679
	c-0.143-0.229-0.442-0.303-0.674-0.168l-9.12,5.266l12.518-9.153c0.215-0.157,0.269-0.454,0.124-0.677
	c-0.146-0.222-0.438-0.294-0.669-0.16l-10.984,6.342l14.408-10.275c0.217-0.155,0.274-0.453,0.13-0.678
	c-0.145-0.224-0.438-0.295-0.67-0.163l-9.286,5.361l11.852-7.888c0.225-0.149,0.291-0.45,0.148-0.68
	c-0.142-0.229-0.44-0.304-0.675-0.169l-7.456,4.305l9.656-6.232c0.228-0.147,0.297-0.449,0.156-0.681
	c-0.141-0.231-0.442-0.307-0.677-0.172l-2.842,1.641l4.642-2.91c0.231-0.145,0.303-0.448,0.163-0.682
	c-0.141-0.234-0.442-0.312-0.678-0.175L172.9,64.312l6.367-5.06c0.006,0.011,0.006,0.022,0.013,0.033
	c0.095,0.149,0.256,0.231,0.422,0.231c0.085,0,0.171-0.021,0.25-0.067l17.305-9.991c0.239-0.138,0.321-0.444,0.183-0.683
	c-0.139-0.239-0.445-0.321-0.683-0.183l-7.568,4.37l10.38-7.293c0.219-0.154,0.278-0.453,0.134-0.678
	c-0.144-0.226-0.439-0.297-0.671-0.164l-0.451,0.261l2.186-1.417c0.228-0.147,0.296-0.449,0.154-0.681s-0.442-0.308-0.676-0.172
	l-0.797,0.46l2.628-1.706c-0.211,0.155-0.27,0.446-0.129,0.668c0.144,0.227,0.441,0.301,0.673,0.166l6.952-4.014l-7.524,6.393
	c-0.197,0.167-0.234,0.458-0.085,0.669c0.148,0.211,0.434,0.274,0.659,0.145l6.153-3.553l-6.715,5.414
	c-0.203,0.164-0.246,0.457-0.099,0.672c0.148,0.215,0.435,0.28,0.663,0.15l0.688-0.397l-1.22,0.838
	c-0.221,0.152-0.283,0.452-0.14,0.679c0.144,0.228,0.441,0.302,0.673,0.167l6.241-3.603l-6.804,5.513
	c-0.203,0.165-0.245,0.457-0.097,0.672c0.149,0.215,0.436,0.281,0.662,0.15l3.968-2.291l-4.513,3.326
	c-0.214,0.157-0.267,0.454-0.122,0.676c0.145,0.222,0.439,0.292,0.668,0.159l4.236-2.446l-4.783,3.554
	c-0.212,0.158-0.265,0.455-0.12,0.676c0.146,0.222,0.439,0.292,0.668,0.159l2.399-1.385l-2.938,2.081
	c-0.218,0.155-0.276,0.453-0.132,0.678c0.145,0.225,0.439,0.297,0.671,0.163l3.053-1.763l-3.594,2.584
	c-0.216,0.155-0.272,0.453-0.128,0.677c0.145,0.223,0.438,0.295,0.67,0.162l4.811-2.778l-5.361,4.064
	c-0.21,0.16-0.26,0.455-0.114,0.675c0.146,0.22,0.438,0.289,0.667,0.157l0.004-0.003L202.1,61.79
	c-0.222,0.151-0.285,0.452-0.142,0.679c0.144,0.228,0.442,0.303,0.673,0.167l7.172-4.141l-7.747,6.699
	c-0.195,0.169-0.229,0.458-0.08,0.668c0.15,0.21,0.433,0.273,0.657,0.143l4.263-2.461l-4.81,3.577
	c-0.212,0.158-0.265,0.455-0.12,0.676c0.146,0.222,0.439,0.291,0.668,0.158l6.768-3.908l-7.336,6.151
	c-0.199,0.167-0.237,0.458-0.088,0.67c0.149,0.212,0.435,0.277,0.66,0.146L206,69.075l-3.905,2.83
	c-0.215,0.156-0.271,0.454-0.126,0.677c0.144,0.223,0.439,0.293,0.669,0.161l5.116-2.954l-5.669,4.349
	c-0.209,0.16-0.258,0.455-0.111,0.674c0.146,0.219,0.436,0.286,0.666,0.155l5.876-3.393l-6.435,5.112
	c-0.205,0.163-0.25,0.457-0.103,0.673c0.147,0.216,0.436,0.283,0.664,0.152l3.637-2.1l-4.181,3.052
	c-0.214,0.157-0.269,0.454-0.124,0.677c0.144,0.222,0.438,0.292,0.669,0.16l4.434-2.56l-4.981,3.727
	c-0.212,0.159-0.264,0.455-0.118,0.676c0.146,0.221,0.439,0.291,0.667,0.158l5.07-2.927l-5.054,3.778
	c-0.212,0.158-0.264,0.455-0.118,0.676c0.096,0.145,0.255,0.225,0.418,0.225c0.085,0,0.171-0.021,0.25-0.067l8.285-4.784
	l-5.229,3.946c-0.211,0.159-0.262,0.455-0.116,0.675c0.146,0.221,0.438,0.29,0.667,0.157l10.814-6.243l-5.74,5.438
	c-0.184,0.174-0.208,0.458-0.057,0.662c0.152,0.204,0.431,0.261,0.651,0.134l6.622-3.823l-2.385,3.075
	c-0.146,0.189-0.139,0.455,0.018,0.635c0.158,0.18,0.42,0.222,0.627,0.104l2.979-1.719l-0.255,1.175
	c-0.042,0.193,0.034,0.394,0.194,0.51c0.159,0.117,0.373,0.128,0.544,0.029l0.5-0.289C221.569,82.53,221.651,82.224,221.513,81.985z
	"/>
<path fill="#FFFFFF" d="M268.938,62.277c-0.029-0.047-0.067-0.084-0.107-0.118c0.14-0.157,0.175-0.387,0.064-0.579
	c-0.138-0.24-0.444-0.321-0.683-0.183l-8.285,4.783l8.554-6.889c0.203-0.164,0.247-0.457,0.099-0.672
	c-0.146-0.215-0.438-0.281-0.662-0.15l-5.252,3.033l5.387-4.186c0.208-0.162,0.255-0.456,0.108-0.674
	c-0.147-0.218-0.438-0.285-0.665-0.154l-5.692,3.287l5.504-4.527c0.201-0.166,0.242-0.457,0.094-0.671
	c-0.148-0.214-0.437-0.279-0.661-0.148l-1.829,1.056l1.842-1.328c0.217-0.156,0.272-0.454,0.128-0.677
	c-0.146-0.224-0.441-0.296-0.67-0.162l-6.014,3.472l5.293-4.73c0.191-0.171,0.223-0.458,0.072-0.666
	c-0.151-0.208-0.436-0.267-0.655-0.14l-6.591,3.806l5.171-5.186c0.177-0.178,0.194-0.459,0.042-0.658
	c-0.153-0.199-0.431-0.25-0.646-0.128l-6.72,3.879l4.674-4.943c0.171-0.181,0.183-0.459,0.029-0.654
	c-0.154-0.195-0.43-0.246-0.643-0.123l-4.452,2.571l9.879-8.014c0.202-0.164,0.244-0.457,0.097-0.671
	c-0.145-0.21-0.422-0.275-0.641-0.162l1.399-0.893c0.229-0.146,0.3-0.449,0.159-0.681c-0.142-0.231-0.441-0.308-0.678-0.173
	l-10.841,6.259l12.226-8.316c0.223-0.151,0.285-0.452,0.143-0.679s-0.439-0.3-0.674-0.167l-17.173,9.915l17.921-12.427
	c0.22-0.152,0.28-0.452,0.137-0.678c-0.053-0.084-0.13-0.138-0.213-0.177c0.217-0.145,0.291-0.432,0.158-0.661
	c-0.138-0.24-0.443-0.321-0.683-0.183l-7.552,4.36l7.796-6.28c0.203-0.164,0.247-0.457,0.099-0.672
	c-0.146-0.215-0.438-0.281-0.662-0.15l-5.223,3.016l5.287-4.116c0.208-0.161,0.255-0.456,0.108-0.674
	c-0.147-0.218-0.438-0.285-0.665-0.154l-6.391,3.69l5.999-5.199c0.195-0.169,0.229-0.458,0.08-0.668s-0.436-0.272-0.657-0.143
	l-6.265,3.617l5.499-4.957c0.189-0.171,0.22-0.458,0.069-0.666s-0.435-0.267-0.654-0.139l-6.595,3.808l5.249-5.075
	c0.182-0.175,0.203-0.459,0.052-0.66c-0.153-0.203-0.434-0.259-0.649-0.132l-0.892,0.515l0.581-0.41
	c0.219-0.154,0.277-0.453,0.133-0.678c-0.144-0.225-0.44-0.298-0.671-0.164l-3.629,2.095l2.797-2.098
	c0.212-0.159,0.264-0.455,0.117-0.675c-0.146-0.221-0.441-0.29-0.667-0.158l-2.013,1.162l1.395-0.984
	c0.219-0.154,0.277-0.453,0.133-0.678c-0.144-0.225-0.441-0.297-0.671-0.164l-7.249,4.185l5.224-4.316
	c0.2-0.166,0.24-0.457,0.093-0.67c-0.148-0.214-0.438-0.278-0.661-0.148l-3.414,1.971l2.183-1.508
	c0.221-0.152,0.282-0.452,0.139-0.678c-0.143-0.227-0.438-0.3-0.673-0.166l-2.778,1.604l1.528-1.066
	c0.22-0.153,0.279-0.453,0.136-0.679c-0.143-0.225-0.442-0.298-0.672-0.165l-13.232,7.64l9.998-6.972
	c0.22-0.153,0.279-0.452,0.136-0.678s-0.441-0.299-0.672-0.165l-11.421,6.594l7.907-5.757c0.215-0.157,0.271-0.454,0.125-0.677
	c-0.145-0.224-0.441-0.294-0.669-0.161l-11.367,6.563l6.435-5.757c0.191-0.171,0.223-0.458,0.072-0.666s-0.436-0.267-0.655-0.14
	l-6.414,3.703l3.05-2.908c0.184-0.175,0.207-0.459,0.056-0.662c-0.153-0.204-0.435-0.26-0.65-0.133l-5.186,2.995l0.355-2.491
	c0.027-0.189-0.057-0.377-0.215-0.485c-0.159-0.107-0.365-0.113-0.53-0.019l-0.5,0.289c-0.239,0.139-0.321,0.444-0.183,0.684
	c0.072,0.124,0.188,0.205,0.317,0.236l-0.379,2.663c-0.027,0.189,0.057,0.377,0.215,0.484c0.158,0.107,0.364,0.114,0.53,0.019
	l2.455-1.417l-3.05,2.908c-0.183,0.175-0.207,0.459-0.055,0.662c0.152,0.202,0.431,0.26,0.65,0.133l5.852-3.378l-6.435,5.757
	c-0.191,0.171-0.222,0.458-0.071,0.666c0.15,0.206,0.432,0.268,0.655,0.14l7.363-4.251l-7.908,5.757
	c-0.215,0.157-0.27,0.454-0.125,0.677c0.146,0.223,0.438,0.293,0.669,0.161l9.461-5.463l-9.997,6.971
	c-0.22,0.153-0.279,0.452-0.136,0.678c0.143,0.226,0.44,0.3,0.672,0.165l13.271-7.663l-1.509,1.053l-1.874,1.082
	c-0.147,0.085-0.226,0.235-0.239,0.393l-10.186,7.107c-0.22,0.153-0.279,0.453-0.136,0.678c0.144,0.227,0.44,0.3,0.672,0.165
	l4.891-2.824l-4.812,4.023c-0.199,0.167-0.238,0.458-0.089,0.67c0.097,0.138,0.251,0.213,0.41,0.213c0.085,0,0.171-0.021,0.25-0.067
	l6.217-3.59l-2.678,2.798c-0.172,0.18-0.186,0.458-0.032,0.654c0.153,0.196,0.43,0.248,0.644,0.125l4.186-2.417l-0.317,1.886
	c-0.032,0.191,0.049,0.383,0.208,0.494c0.158,0.111,0.367,0.12,0.535,0.022l0.502-0.29c0.239-0.138,0.321-0.444,0.184-0.683
	c-0.068-0.118-0.178-0.198-0.299-0.231l0.35-2.079c0.032-0.191-0.049-0.383-0.208-0.494c-0.16-0.111-0.369-0.119-0.535-0.022
	l-2.073,1.197l2.678-2.798c0.172-0.18,0.186-0.458,0.032-0.654c-0.154-0.196-0.43-0.247-0.644-0.125l-4.248,2.453l4.811-4.022
	c0.199-0.167,0.238-0.458,0.09-0.67c-0.128-0.182-0.359-0.254-0.561-0.19l2.807-1.959l2.181-1.259L241.8,25.89
	c-0.221,0.152-0.282,0.452-0.139,0.678c0.144,0.228,0.439,0.301,0.673,0.166l8.926-5.153l-5.225,4.317
	c-0.2,0.166-0.24,0.457-0.093,0.67c0.148,0.214,0.438,0.278,0.661,0.148l2.9-1.675l-1.396,0.985
	c-0.219,0.154-0.277,0.453-0.133,0.678c0.144,0.226,0.441,0.298,0.671,0.164l4.319-2.494l-2.796,2.097
	c-0.212,0.159-0.264,0.455-0.117,0.675c0.146,0.221,0.438,0.289,0.667,0.158l1.309-0.755l-0.579,0.408
	c-0.219,0.154-0.277,0.453-0.133,0.678c0.144,0.225,0.438,0.297,0.671,0.164l6.907-3.988l-5.249,5.075
	c-0.182,0.175-0.203,0.459-0.052,0.66c0.152,0.202,0.433,0.258,0.649,0.132l6.006-3.467l-5.499,4.957
	c-0.189,0.171-0.22,0.458-0.069,0.666c0.15,0.208,0.437,0.268,0.654,0.139l5.839-3.371l-6,5.2c-0.195,0.169-0.229,0.458-0.08,0.668
	c0.15,0.211,0.438,0.272,0.657,0.143l4.647-2.684l-5.286,4.115c-0.208,0.161-0.255,0.456-0.108,0.674
	c0.147,0.218,0.438,0.285,0.665,0.154l5.904-3.409l-7.795,6.279c-0.203,0.164-0.247,0.457-0.099,0.672
	c0.049,0.072,0.115,0.126,0.189,0.163l-10.263,5.925l2.986-2.363c0.205-0.163,0.25-0.456,0.104-0.673
	c-0.148-0.217-0.44-0.284-0.664-0.152l-6.116,3.531l2.156-2.742c0.148-0.188,0.143-0.456-0.015-0.637s-0.421-0.223-0.628-0.105
	l-2.779,1.604l0.24-1.061c0.044-0.194-0.03-0.395-0.19-0.513c-0.16-0.117-0.373-0.129-0.547-0.031l-0.499,0.288
	c-0.239,0.138-0.321,0.444-0.183,0.683c0.059,0.102,0.147,0.175,0.248,0.215l-0.297,1.313c-0.044,0.194,0.03,0.395,0.19,0.513
	c0.16,0.12,0.374,0.131,0.547,0.031l1.522-0.879l-2.156,2.742c-0.148,0.188-0.143,0.456,0.015,0.637
	c0.158,0.182,0.423,0.225,0.628,0.105l2.432-1.404l-2.986,2.362c-0.205,0.163-0.25,0.456-0.104,0.673
	c0.147,0.217,0.438,0.283,0.664,0.152l18.915-10.921l-17.922,12.428c-0.22,0.152-0.28,0.452-0.137,0.678s0.439,0.3,0.672,0.166
	l15.892-9.175l-12.223,8.313c-0.223,0.151-0.285,0.452-0.143,0.679c0.144,0.229,0.441,0.303,0.674,0.167l3.033-1.751l-1.394,0.89
	c-0.229,0.146-0.3,0.449-0.159,0.681c0.143,0.232,0.441,0.311,0.678,0.173l14.053-8.113l-9.88,8.015
	c-0.202,0.164-0.244,0.457-0.097,0.671c0.148,0.216,0.438,0.28,0.662,0.15l6.956-4.017l-4.673,4.942
	c-0.171,0.181-0.183,0.459-0.029,0.654c0.154,0.195,0.43,0.245,0.643,0.123l6.416-3.704l-5.172,5.186
	c-0.177,0.178-0.194,0.459-0.042,0.658c0.154,0.199,0.433,0.252,0.646,0.128l5.667-3.272l-5.292,4.73
	c-0.191,0.171-0.223,0.458-0.072,0.666c0.151,0.208,0.437,0.268,0.655,0.14l1.633-0.943l-1.842,1.328
	c-0.217,0.156-0.272,0.454-0.128,0.677s0.44,0.294,0.67,0.162l5.16-2.979l-5.505,4.528c-0.201,0.166-0.242,0.457-0.094,0.671
	s0.437,0.278,0.661,0.148L261.681,61l-5.388,4.186c-0.208,0.162-0.255,0.456-0.108,0.674c0.148,0.219,0.439,0.286,0.665,0.154
	l5.97-3.447l-8.553,6.888c-0.203,0.164-0.247,0.457-0.099,0.672c0.02,0.029,0.05,0.043,0.074,0.066l-8.029,4.635l1.382-0.929
	c0.224-0.15,0.287-0.451,0.145-0.68c-0.142-0.229-0.44-0.304-0.674-0.168l-10.168,5.871l5.951-4.812
	c0.203-0.164,0.245-0.457,0.098-0.672c-0.147-0.215-0.437-0.281-0.662-0.15l-7.913,4.569l4.594-3.749
	c0.201-0.165,0.243-0.457,0.095-0.671c-0.146-0.214-0.437-0.28-0.661-0.149l-6.916,3.993l2.745-3.236
	c0.158-0.185,0.159-0.457,0.003-0.644c-0.156-0.188-0.426-0.233-0.634-0.113l-3.68,2.125l0.295-1.601
	c0.035-0.192-0.044-0.387-0.203-0.5c-0.161-0.113-0.37-0.123-0.539-0.024l-0.499,0.288c-0.239,0.138-0.321,0.444-0.183,0.683
	c0.065,0.113,0.167,0.19,0.283,0.227l-0.333,1.81c-0.035,0.192,0.044,0.387,0.203,0.5c0.159,0.111,0.369,0.122,0.539,0.024
	l2.123-1.226l-2.745,3.236c-0.157,0.185-0.158,0.457-0.002,0.644s0.423,0.234,0.634,0.113l4.035-2.33l-4.593,3.749
	c-0.202,0.165-0.244,0.457-0.096,0.671c0.149,0.215,0.436,0.28,0.662,0.149l7.759-4.479l-5.952,4.813
	c-0.203,0.164-0.246,0.457-0.098,0.672c0.096,0.14,0.252,0.217,0.413,0.217c0.085,0,0.171-0.021,0.25-0.067l3.084-1.781l-1.38,0.928
	c-0.224,0.15-0.287,0.451-0.145,0.68c0.141,0.229,0.438,0.302,0.674,0.168l11.214-6.474l-8.94,5.612
	c-0.231,0.145-0.304,0.448-0.163,0.681c0.141,0.234,0.442,0.312,0.679,0.175l11.46-6.617l-9.055,5.756
	c-0.229,0.146-0.3,0.448-0.159,0.681c0.142,0.232,0.442,0.311,0.678,0.174l8.976-5.182l-6.78,4.322
	c-0.229,0.146-0.3,0.449-0.159,0.681c0.141,0.233,0.442,0.31,0.678,0.174l13.437-7.758l-10.063,6.806
	c-0.223,0.151-0.286,0.451-0.144,0.679c0.144,0.229,0.441,0.303,0.674,0.168l13.979-8.071l-8.636,6.543
	c-0.211,0.159-0.261,0.455-0.115,0.675c0.147,0.22,0.439,0.288,0.667,0.157l4.865-2.809l-0.664,0.489
	c-0.214,0.157-0.268,0.454-0.123,0.676c0.146,0.223,0.441,0.293,0.669,0.16l5.219-3.013c0.239-0.138,0.321-0.444,0.183-0.683
	c-0.038-0.067-0.091-0.123-0.151-0.164l2.728-2.007c0.214-0.157,0.268-0.454,0.123-0.676c-0.146-0.223-0.44-0.292-0.669-0.16
	l-5.749,3.319l8.636-6.543c0.211-0.159,0.261-0.455,0.115-0.675c-0.148-0.221-0.44-0.29-0.667-0.157l-8.728,5.039l10.063-6.806
	c0.223-0.151,0.286-0.451,0.144-0.679c-0.143-0.229-0.439-0.301-0.674-0.168l-5.876,3.393l6.771-4.316
	c0.229-0.146,0.3-0.449,0.159-0.681c-0.141-0.232-0.441-0.309-0.678-0.174l-8.406,4.854l9.062-5.76
	c0.229-0.146,0.3-0.448,0.159-0.681c-0.141-0.232-0.44-0.31-0.678-0.174l-8.322,4.805l8.937-5.61
	C269.006,62.813,269.078,62.51,268.938,62.277z"/>
<path fill="#FFFFFF" d="M334.126,81.819c-0.126-0.22-0.396-0.305-0.617-0.215l0.076-1.278c0.011-0.184-0.08-0.358-0.236-0.455
	c-0.155-0.097-0.354-0.098-0.513-0.008l-1.938,1.119l1.821-2.683c0.131-0.193,0.11-0.451-0.048-0.621
	c-0.16-0.173-0.416-0.208-0.616-0.093l-4.942,2.854l4.574-4.954c0.168-0.182,0.178-0.458,0.023-0.651
	c-0.154-0.194-0.429-0.243-0.641-0.121l-7.497,4.329l7.234-5.93c0.201-0.165,0.242-0.457,0.094-0.671
	c-0.148-0.213-0.436-0.279-0.661-0.148l-10.495,6.06l10.16-7.825c0.209-0.161,0.257-0.456,0.11-0.674
	c-0.146-0.218-0.439-0.287-0.665-0.155l-14.822,8.558l3.99-4.23c0.165-0.174,0.178-0.437,0.042-0.63
	c0.055,0.02,0.109,0.041,0.167,0.041c0.085,0,0.172-0.021,0.25-0.067l9.88-5.704c0.239-0.138,0.321-0.444,0.183-0.683
	c-0.138-0.24-0.444-0.321-0.683-0.183l-3.286,1.897l3.33-2.557c0.209-0.16,0.258-0.455,0.111-0.674
	c-0.147-0.219-0.439-0.287-0.666-0.155l-1.593,0.92l1.733-1.259c0.215-0.157,0.271-0.454,0.125-0.677
	c-0.145-0.224-0.441-0.294-0.669-0.161l-5.507,3.18l5.301-4.665c0.193-0.17,0.226-0.458,0.076-0.667
	c-0.149-0.209-0.435-0.269-0.656-0.142l-2.052,1.185l2.171-1.597c0.213-0.157,0.267-0.454,0.122-0.676
	c-0.145-0.223-0.439-0.292-0.669-0.16l-3.936,2.272l3.926-3.108c0.205-0.163,0.25-0.457,0.104-0.673
	c-0.148-0.218-0.44-0.285-0.664-0.152l-0.504,0.292l0.688-0.487c0.218-0.155,0.276-0.453,0.132-0.678
	c-0.144-0.224-0.441-0.297-0.671-0.163l-5.609,3.239l5.382-4.796c0.191-0.17,0.223-0.458,0.072-0.666s-0.436-0.268-0.655-0.14
	l-2.665,1.539l2.75-2.066c0.211-0.159,0.262-0.455,0.116-0.676c-0.146-0.221-0.44-0.291-0.667-0.157l-4.968,2.868l4.898-3.877
	c0.205-0.163,0.25-0.456,0.104-0.673c-0.148-0.217-0.439-0.284-0.664-0.152l-7.899,4.561l7.679-6.004
	c0.207-0.162,0.254-0.456,0.106-0.674c-0.146-0.218-0.438-0.284-0.664-0.153l-5.879,3.395l5.911-4
	c0.223-0.151,0.286-0.451,0.144-0.679s-0.439-0.301-0.674-0.168l-11.128,6.424l10.932-7.729c0.218-0.154,0.276-0.453,0.132-0.678
	c-0.045-0.071-0.107-0.12-0.176-0.159c0.057-0.138,0.058-0.297-0.023-0.436c-0.138-0.24-0.444-0.321-0.683-0.183l-2.521,1.456
	l2.611-1.964c0.211-0.159,0.262-0.455,0.116-0.675s-0.44-0.29-0.667-0.157l-1.426,0.823l1.572-1.144
	c0.215-0.156,0.271-0.454,0.125-0.677c-0.145-0.223-0.44-0.294-0.669-0.161l-5.847,3.376l5.547-5.177
	c0.187-0.174,0.212-0.459,0.062-0.663c-0.152-0.206-0.435-0.262-0.652-0.136l-3.03,1.75l3.088-2.371
	c0.209-0.16,0.258-0.455,0.111-0.674c-0.147-0.22-0.439-0.286-0.666-0.155l-6.093,3.517l5.727-5.534
	c0.182-0.175,0.204-0.458,0.052-0.66c-0.153-0.203-0.434-0.257-0.649-0.132l-3.84,2.217l3.831-3.06
	c0.204-0.163,0.248-0.457,0.101-0.672c-0.147-0.216-0.438-0.283-0.663-0.151l-6.085,3.514l5.716-5.545
	c0.181-0.176,0.202-0.459,0.051-0.66c-0.153-0.203-0.433-0.258-0.649-0.132l-3.865,2.232l3.853-3.087
	c0.204-0.164,0.248-0.457,0.101-0.672c-0.148-0.216-0.438-0.283-0.663-0.151l-4.322,2.496l4.262-3.511
	c0.2-0.165,0.241-0.457,0.093-0.671s-0.438-0.279-0.661-0.148l-5.289,3.054l5.09-4.528c0.121-0.107,0.17-0.261,0.158-0.412
	c0.033-0.011,0.069-0.009,0.1-0.027l5.285-3.051l-0.992,2.37c-0.083,0.198-0.03,0.426,0.131,0.568
	c0.16,0.141,0.394,0.164,0.58,0.058l1.588-0.917c0.239-0.138,0.321-0.444,0.183-0.683c-0.138-0.24-0.444-0.321-0.683-0.183
	l-0.304,0.176l0.991-2.37c0.083-0.198,0.03-0.426-0.131-0.568c-0.16-0.142-0.395-0.166-0.58-0.058l-5.698,3.29l6.223-4.482
	c0.217-0.156,0.272-0.454,0.128-0.677c-0.034-0.053-0.078-0.095-0.126-0.13c0.217-0.152,0.279-0.447,0.138-0.673
	c-0.144-0.229-0.439-0.303-0.674-0.168l-14.57,8.413l14.995-9.802c0.227-0.148,0.294-0.45,0.152-0.68s-0.439-0.306-0.676-0.171
	l-4.014,2.317l2.33-1.455c0.231-0.145,0.305-0.448,0.164-0.682c-0.142-0.235-0.441-0.313-0.679-0.176l-18.681,10.786l13.445-9.935
	c0.214-0.158,0.267-0.455,0.121-0.676c-0.145-0.222-0.439-0.291-0.668-0.159l-14.146,8.168l8.752-7.336
	c0.198-0.167,0.237-0.458,0.088-0.67c-0.148-0.212-0.436-0.277-0.659-0.146l-2.661,1.537l0.967-0.691
	c0.218-0.155,0.274-0.453,0.131-0.677c-0.146-0.225-0.442-0.297-0.671-0.163l-6.042,3.488l2.473-2.707
	c0.166-0.182,0.175-0.458,0.021-0.651c-0.154-0.192-0.428-0.242-0.64-0.12l-1.939,1.12l0.252-0.426
	c0.116-0.195,0.086-0.445-0.074-0.606c-0.161-0.163-0.41-0.195-0.605-0.082l-0.629,0.363c-0.239,0.138-0.321,0.444-0.183,0.683
	c0.019,0.032,0.04,0.062,0.064,0.088l-0.659,1.112c-0.116,0.195-0.086,0.445,0.074,0.606c0.16,0.162,0.409,0.193,0.605,0.082
	l0.797-0.46l-2.474,2.708c-0.166,0.182-0.175,0.458-0.021,0.651c0.137,0.169,0.366,0.228,0.563,0.156l-1.027,0.734
	c-0.218,0.155-0.274,0.453-0.131,0.677c0.145,0.225,0.441,0.294,0.671,0.163l6.676-3.854l-8.753,7.337
	c-0.198,0.167-0.237,0.458-0.088,0.67c0.148,0.212,0.436,0.277,0.659,0.146l11.438-6.604l-13.445,9.935
	c-0.214,0.158-0.267,0.455-0.121,0.676c0.146,0.223,0.44,0.293,0.668,0.159l1.26-0.727l-2.329,1.454
	c-0.231,0.145-0.305,0.448-0.164,0.682c0.14,0.234,0.44,0.312,0.679,0.176l13.464-7.773l-14.997,9.803
	c-0.227,0.148-0.294,0.45-0.152,0.68c0.142,0.231,0.44,0.307,0.676,0.171l12.396-7.157c0.008,0.066,0.028,0.131,0.063,0.191
	c0.043,0.075,0.105,0.128,0.174,0.17l-14.505,9.779c-0.224,0.15-0.287,0.451-0.145,0.68c0.143,0.228,0.438,0.302,0.674,0.168
	l7.284-4.206l-9.241,7.364c-0.205,0.163-0.249,0.457-0.102,0.673c0.148,0.216,0.438,0.282,0.663,0.151l2.655-1.533l-3.896,2.701
	c-0.22,0.153-0.28,0.452-0.137,0.679c0.144,0.227,0.438,0.299,0.672,0.166l6.782-3.916l-8.589,6.657
	c-0.207,0.161-0.255,0.456-0.108,0.674c0.146,0.219,0.438,0.286,0.665,0.154l6.716-3.878l-8.502,6.559
	c-0.208,0.161-0.256,0.456-0.109,0.674c0.146,0.218,0.438,0.286,0.665,0.155l6.135-3.542l-7.792,5.867
	c-0.211,0.159-0.262,0.455-0.116,0.675c0.145,0.221,0.438,0.289,0.667,0.157l5.699-3.29l-7.275,5.391
	c-0.213,0.158-0.266,0.455-0.12,0.676c0.131,0.199,0.38,0.275,0.595,0.193l-0.994,0.661c-0.226,0.149-0.291,0.451-0.148,0.68
	s0.438,0.304,0.675,0.169l7.137-4.121l-8.699,6.196c-0.218,0.155-0.274,0.453-0.131,0.678c0.146,0.224,0.441,0.295,0.671,0.163
	l0.564-0.326l-1.629,1.033c-0.23,0.146-0.301,0.449-0.16,0.681c0.141,0.233,0.441,0.31,0.678,0.174l9.074-5.239l-10.475,6.887
	c-0.227,0.149-0.293,0.45-0.151,0.681c0.143,0.23,0.44,0.305,0.676,0.17l13.215-7.63c0.103,0.097,0.238,0.148,0.377,0.137
	l-15.51,10.6c-0.222,0.151-0.284,0.451-0.141,0.679c0.144,0.229,0.44,0.302,0.673,0.167l7.313-4.222l-9.211,7.219
	c-0.206,0.162-0.253,0.456-0.105,0.673c0.146,0.217,0.438,0.285,0.664,0.153l2.778-1.604l-4.019,2.774
	c-0.221,0.152-0.282,0.452-0.139,0.679c0.144,0.228,0.439,0.3,0.673,0.166l7.246-4.184l-9.107,7.079
	c-0.208,0.162-0.255,0.456-0.108,0.674c0.147,0.218,0.438,0.286,0.665,0.154l9.04-5.22l-6.036,4.968
	c-0.201,0.166-0.242,0.457-0.094,0.671c0.097,0.14,0.252,0.215,0.411,0.215c0.085,0,0.172-0.021,0.25-0.067l3.286-1.897
	l-1.537,1.041c-0.223,0.151-0.286,0.451-0.144,0.68c0.144,0.229,0.441,0.303,0.674,0.167l11.289-6.518l-5.968,5.701
	c-0.183,0.175-0.206,0.458-0.055,0.661c0.152,0.203,0.434,0.259,0.65,0.133l6.729-3.885l-2.479,3.122
	c-0.149,0.188-0.144,0.456,0.013,0.638c0.156,0.181,0.422,0.225,0.629,0.106l3.166-1.828l-0.264,1.281
	c-0.039,0.193,0.038,0.391,0.197,0.506c0.16,0.116,0.372,0.127,0.543,0.028l0.502-0.29c0.239-0.138,0.321-0.444,0.184-0.683
	c-0.063-0.108-0.159-0.184-0.269-0.222l0.311-1.508c0.039-0.193-0.038-0.391-0.197-0.506c-0.161-0.116-0.374-0.126-0.543-0.028
	l-1.855,1.071l2.479-3.122c0.149-0.188,0.144-0.456-0.013-0.638c-0.157-0.183-0.423-0.226-0.629-0.106l-5.396,3.115l5.968-5.701
	c0.183-0.175,0.206-0.458,0.055-0.661c-0.153-0.204-0.435-0.26-0.65-0.133l-2.85,1.646l1.534-1.04
	c0.223-0.151,0.286-0.451,0.144-0.68c-0.143-0.228-0.439-0.301-0.674-0.167l-10.093,5.827l6.037-4.968
	c0.201-0.166,0.242-0.457,0.094-0.671c-0.147-0.214-0.437-0.28-0.661-0.148l-7.972,4.603l9.107-7.079
	c0.208-0.162,0.255-0.456,0.108-0.674c-0.147-0.218-0.439-0.286-0.665-0.154l-2.819,1.628l4.02-2.775
	c0.221-0.153,0.282-0.452,0.139-0.679c-0.143-0.227-0.438-0.3-0.673-0.166l-7.389,4.266l9.209-7.217
	c0.206-0.162,0.253-0.456,0.105-0.673c-0.146-0.218-0.438-0.284-0.664-0.153l-2.037,1.176l6.785-4.637
	c-0.039,0.135-0.027,0.284,0.055,0.41c0.146,0.223,0.44,0.293,0.669,0.16l14.856-8.578l-10.93,7.728
	c-0.218,0.154-0.276,0.453-0.132,0.678c0.144,0.225,0.441,0.297,0.671,0.164l8.406-4.853l-5.912,4
	c-0.223,0.151-0.286,0.451-0.144,0.679c0.145,0.229,0.44,0.302,0.674,0.168l11.849-6.841l-7.68,6.005
	c-0.207,0.162-0.254,0.456-0.106,0.674c0.146,0.218,0.438,0.285,0.664,0.153l8.156-4.709l-4.896,3.876
	c-0.205,0.163-0.25,0.456-0.104,0.673c0.147,0.217,0.438,0.283,0.664,0.152l3.729-2.153l-2.75,2.066
	c-0.211,0.159-0.262,0.455-0.116,0.676c0.146,0.22,0.439,0.288,0.667,0.157l5.599-3.232l-5.383,4.797
	c-0.191,0.17-0.223,0.458-0.072,0.666c0.15,0.209,0.438,0.269,0.655,0.14l0.495-0.286l-0.685,0.485
	c-0.218,0.155-0.276,0.453-0.132,0.678c0.144,0.225,0.438,0.296,0.671,0.163l3.927-2.268l-3.926,3.109
	c-0.205,0.163-0.25,0.457-0.104,0.673c0.147,0.217,0.438,0.283,0.664,0.152l2.048-1.183l-2.173,1.599
	c-0.213,0.158-0.267,0.455-0.122,0.676c0.146,0.223,0.441,0.292,0.669,0.16l5.494-3.173l-5.3,4.665
	c-0.193,0.17-0.226,0.458-0.076,0.667c0.15,0.209,0.437,0.271,0.656,0.142l1.587-0.917l-1.733,1.259
	c-0.215,0.157-0.271,0.454-0.125,0.677c0.144,0.223,0.438,0.292,0.669,0.161l3.276-1.892l-3.329,2.556
	c-0.209,0.16-0.258,0.455-0.111,0.674c0,0.001,0.001,0.001,0.002,0.002c-0.133-0.045-0.28-0.04-0.408,0.033l-5.472,3.16l0.349-2.595
	c0.025-0.189-0.059-0.376-0.217-0.482s-0.363-0.114-0.528-0.018l-0.508,0.293c-0.239,0.138-0.321,0.444-0.183,0.683
	c0.073,0.128,0.196,0.211,0.33,0.239l-0.37,2.755c-0.025,0.189,0.059,0.376,0.217,0.482c0.158,0.106,0.363,0.112,0.528,0.018
	l3.397-1.962l-3.99,4.23c-0.171,0.181-0.183,0.459-0.029,0.653c0.155,0.195,0.43,0.246,0.643,0.123l11.259-6.5l-10.159,7.824
	c-0.209,0.161-0.257,0.456-0.11,0.674c0.096,0.143,0.254,0.222,0.415,0.222c0.085,0,0.172-0.021,0.25-0.067l11.715-6.764
	l-7.234,5.93c-0.201,0.165-0.242,0.457-0.094,0.671c0.148,0.213,0.437,0.278,0.661,0.148l9.946-5.742l-4.575,4.954
	c-0.168,0.182-0.178,0.458-0.023,0.651c0.154,0.194,0.429,0.243,0.641,0.121l5.905-3.41l-1.821,2.683
	c-0.131,0.193-0.11,0.451,0.048,0.621c0.16,0.171,0.415,0.207,0.616,0.093l3.021-1.744l-0.075,1.271
	c-0.011,0.184,0.08,0.358,0.236,0.455c0.156,0.098,0.354,0.1,0.513,0.008l0.738-0.426C334.183,82.364,334.265,82.059,334.126,81.819
	z M314.539,26.176c-0.033,0.01-0.066,0.016-0.097,0.034l-0.904,0.522l1.021-0.735C314.541,26.055,314.535,26.115,314.539,26.176z
	 M309.699,52.513c0.215-0.157,0.27-0.454,0.124-0.677c-0.145-0.223-0.439-0.292-0.669-0.16l-0.136,0.079
	c-0.156-0.149-0.391-0.189-0.588-0.077l-13.422,7.75l10.479-6.89c0.227-0.149,0.293-0.45,0.151-0.681
	c-0.143-0.23-0.44-0.305-0.676-0.17l-3.267,1.886l1.615-1.025c0.23-0.146,0.301-0.449,0.16-0.681
	c-0.141-0.233-0.44-0.309-0.678-0.174l-12.208,7.048l8.701-6.198c0.218-0.155,0.274-0.453,0.131-0.678
	c-0.146-0.225-0.442-0.296-0.671-0.163l-2.518,1.454l0.9-0.598c0.225-0.149,0.29-0.451,0.147-0.68
	c-0.144-0.23-0.44-0.305-0.675-0.169l-5.952,3.436l7.274-5.39c0.213-0.158,0.266-0.455,0.12-0.676
	c-0.146-0.221-0.439-0.29-0.668-0.159l-6.175,3.564l7.793-5.867c0.211-0.159,0.262-0.455,0.116-0.675
	c-0.146-0.222-0.44-0.291-0.667-0.157l-6.763,3.904l8.505-6.561c0.208-0.161,0.256-0.456,0.109-0.674
	c-0.146-0.219-0.439-0.287-0.665-0.155l-6.823,3.939l8.587-6.655c0.207-0.161,0.255-0.456,0.108-0.674s-0.438-0.286-0.665-0.154
	l-2.688,1.551l3.902-2.706c0.22-0.152,0.28-0.452,0.137-0.678s-0.441-0.3-0.672-0.166l-7.333,4.234l9.241-7.364
	c0.205-0.163,0.249-0.457,0.102-0.673c-0.147-0.217-0.439-0.282-0.663-0.151l-0.637,0.368l10.331-6.966l-7.673,5.525
	c-0.217,0.156-0.272,0.454-0.128,0.677s0.44,0.293,0.67,0.162l5.272-3.044l-5.09,4.528c-0.192,0.17-0.224,0.458-0.073,0.666
	c0.15,0.209,0.437,0.269,0.655,0.141l4.309-2.488l-4.262,3.51c-0.2,0.165-0.241,0.457-0.093,0.671
	c0.148,0.213,0.438,0.277,0.661,0.148l3.852-2.224l-3.852,3.086c-0.204,0.164-0.248,0.457-0.101,0.672s0.437,0.281,0.663,0.151
	l6.065-3.502l-5.717,5.545c-0.181,0.176-0.202,0.459-0.051,0.66c0.152,0.202,0.432,0.255,0.649,0.132l3.828-2.21l-3.831,3.06
	c-0.204,0.163-0.248,0.457-0.101,0.672s0.438,0.281,0.663,0.151l6.07-3.505l-5.726,5.534c-0.182,0.175-0.204,0.458-0.052,0.66
	c0.152,0.203,0.433,0.258,0.649,0.132l3.021-1.744l-3.089,2.371c-0.209,0.16-0.258,0.455-0.111,0.674
	c0.147,0.219,0.439,0.287,0.666,0.155l5.829-3.365l-5.548,5.177c-0.187,0.174-0.212,0.459-0.062,0.663
	c0.152,0.206,0.435,0.263,0.652,0.136l1.413-0.816l-1.568,1.141c-0.215,0.156-0.271,0.454-0.125,0.677
	c0.144,0.223,0.439,0.293,0.669,0.161l2.512-1.45l-2.612,1.964c-0.211,0.159-0.262,0.455-0.116,0.675
	c0.022,0.033,0.056,0.05,0.083,0.076l-6.287,3.63L309.699,52.513z"/>
<g>
	<path fill="#FFFFFF" d="M398.651,81.984c-0.069-0.12-0.182-0.201-0.307-0.233l0.358-2.304c0.029-0.19-0.053-0.38-0.212-0.489
		c-0.159-0.108-0.367-0.117-0.532-0.021l-1.971,1.138l2.562-2.48c0.182-0.176,0.203-0.459,0.052-0.661
		c-0.152-0.202-0.434-0.258-0.649-0.132l-2.862,1.652l3.413-2.65c0.208-0.161,0.255-0.456,0.108-0.674
		c-0.147-0.218-0.438-0.286-0.665-0.154l-8.179,4.722l6.281-5.622c0.191-0.171,0.223-0.458,0.072-0.666
		c-0.151-0.207-0.436-0.266-0.655-0.14l-8.93,5.156l5.567-4.31c0.208-0.161,0.256-0.456,0.109-0.674s-0.438-0.286-0.665-0.154
		l-7.469,4.312l7.502-6.365c0.197-0.167,0.234-0.458,0.086-0.669c-0.152-0.213-0.438-0.274-0.659-0.145l-4.655,2.688l5.205-3.923
		c0.211-0.159,0.262-0.455,0.116-0.675c-0.146-0.221-0.44-0.29-0.667-0.157l-5.726,3.306l6.283-4.953
		c0.206-0.162,0.251-0.456,0.104-0.673c-0.148-0.218-0.439-0.285-0.664-0.153l-7.267,4.196l7.843-6.839
		c0.194-0.169,0.229-0.458,0.079-0.667c-0.15-0.209-0.436-0.272-0.657-0.143l-3.723,2.149l4.267-3.122
		c0.215-0.157,0.269-0.454,0.124-0.676c-0.146-0.222-0.44-0.292-0.669-0.16l-5.251,3.031l5.806-4.478
		c0.208-0.161,0.256-0.456,0.109-0.674c-0.146-0.219-0.439-0.287-0.665-0.155l-5.963,3.443l6.523-5.206
		c0.205-0.163,0.249-0.456,0.102-0.672c-0.146-0.214-0.431-0.28-0.654-0.156l0.521-0.354c0.223-0.151,0.285-0.452,0.143-0.679
		s-0.44-0.301-0.674-0.167l-2.688,1.552l3.228-2.301c0.218-0.155,0.274-0.453,0.131-0.678c-0.146-0.225-0.442-0.296-0.671-0.163
		l-6.072,3.506l6.634-5.324c0.204-0.164,0.248-0.457,0.101-0.672c-0.148-0.216-0.438-0.283-0.663-0.151l-4.472,2.582l5.021-3.759
		c0.212-0.159,0.264-0.455,0.117-0.676c-0.146-0.221-0.44-0.291-0.667-0.158l-7.102,4.1l7.676-6.598
		c0.195-0.168,0.231-0.458,0.082-0.668c-0.15-0.21-0.435-0.273-0.658-0.144l-5.17,2.985l5.724-4.399
		c0.209-0.161,0.258-0.456,0.111-0.674c-0.148-0.219-0.439-0.287-0.666-0.155l-5.659,3.268l6.216-4.884
		c0.207-0.162,0.253-0.456,0.105-0.673c-0.146-0.218-0.439-0.285-0.664-0.153l-6.67,3.851l7.239-6.026
		c0.199-0.166,0.238-0.458,0.09-0.67s-0.438-0.277-0.66-0.147l-5.822,3.362l6.381-5.053c0.205-0.163,0.25-0.457,0.104-0.673
		c-0.148-0.217-0.439-0.284-0.664-0.152l-1.166,0.673l1.7-1.177c0.221-0.153,0.281-0.452,0.139-0.679
		c-0.01-0.016-0.026-0.026-0.038-0.04c0.129-0.161,0.154-0.388,0.039-0.572c-0.144-0.23-0.44-0.304-0.675-0.169l-12.906,7.452
		l13.428-8.746c0.228-0.148,0.295-0.45,0.153-0.681s-0.44-0.307-0.676-0.171l-5.408,3.123l5.925-3.744
		c0.229-0.146,0.301-0.448,0.16-0.682s-0.44-0.31-0.678-0.174l-15.119,8.729l15.652-10.829c0.221-0.152,0.282-0.452,0.139-0.679
		c-0.145-0.226-0.441-0.299-0.673-0.166l-14.62,8.441l15.161-10.971c0.216-0.156,0.271-0.454,0.127-0.677
		c-0.146-0.223-0.441-0.295-0.67-0.161l-12.127,7.001l12.671-9.317c0.214-0.157,0.268-0.454,0.123-0.676
		c-0.146-0.222-0.44-0.292-0.669-0.16l-8.786,5.072l9.329-6.771c0.215-0.156,0.271-0.454,0.125-0.677
		c-0.145-0.223-0.44-0.295-0.669-0.161l-8.688,5.016l5.798-4.555c0.207-0.162,0.253-0.456,0.105-0.673
		c-0.146-0.218-0.439-0.284-0.664-0.153l-7.24,4.181l2.386-3.445c0.133-0.192,0.115-0.451-0.043-0.624
		c-0.159-0.172-0.417-0.209-0.618-0.094l-0.766,0.442c-0.239,0.138-0.321,0.444-0.183,0.683c0.017,0.029,0.035,0.055,0.056,0.079
		l-2.923,4.221c-0.133,0.192-0.115,0.451,0.043,0.624c0.159,0.172,0.417,0.21,0.618,0.094l3.091-1.785l-5.798,4.555
		c-0.207,0.162-0.253,0.456-0.105,0.673c0.146,0.217,0.438,0.283,0.664,0.153l6.469-3.735l-9.327,6.77
		c-0.215,0.156-0.271,0.454-0.125,0.677c0.143,0.223,0.438,0.293,0.669,0.161l9.248-5.339l-12.67,9.316
		c-0.214,0.157-0.268,0.454-0.123,0.676c0.146,0.223,0.441,0.293,0.669,0.16l11.546-6.666l-15.162,10.972
		c-0.216,0.156-0.271,0.454-0.127,0.677c0.145,0.223,0.439,0.294,0.67,0.161l12.431-7.177l-15.651,10.828
		c-0.221,0.152-0.282,0.452-0.139,0.679c0.145,0.227,0.439,0.301,0.673,0.166l4.063-2.346l-5.928,3.746
		c-0.229,0.146-0.301,0.448-0.16,0.682c0.141,0.234,0.442,0.311,0.678,0.174l10.95-6.322l-13.431,8.748
		c-0.228,0.148-0.295,0.45-0.153,0.681c0.141,0.231,0.439,0.307,0.676,0.171l15.386-8.883l-18.444,12.27
		c-0.225,0.15-0.29,0.451-0.147,0.68c0.143,0.229,0.44,0.304,0.675,0.169l0.555-0.32l-2.277,1.476
		c-0.227,0.147-0.296,0.449-0.154,0.681c0.143,0.231,0.44,0.307,0.677,0.172l5.798-3.347l-7.862,5.362
		c0.024-0.128,0.001-0.263-0.079-0.377c-0.148-0.212-0.436-0.277-0.659-0.146l-1.02,0.589l1.553-1.072
		c0.221-0.153,0.282-0.452,0.139-0.679c-0.143-0.227-0.439-0.299-0.673-0.166l-6.013,3.471l6.574-5.258
		c0.204-0.164,0.248-0.457,0.101-0.672c-0.148-0.216-0.438-0.283-0.663-0.151l-6.659,3.844l7.226-6.01
		c0.2-0.166,0.239-0.457,0.091-0.67c-0.148-0.213-0.437-0.277-0.66-0.147l-6.879,3.972l7.449-6.295
		c0.198-0.167,0.235-0.458,0.087-0.669c-0.148-0.211-0.436-0.274-0.659-0.146l-7.132,4.118l7.706-6.641
		c0.195-0.168,0.23-0.458,0.081-0.668s-0.437-0.273-0.657-0.144l-2.862,1.653l3.402-2.435c0.217-0.155,0.273-0.454,0.129-0.678
		c-0.145-0.225-0.441-0.295-0.67-0.162l-5.498,3.174l6.054-4.72c0.207-0.162,0.254-0.456,0.107-0.674
		c-0.147-0.218-0.438-0.285-0.665-0.154l-6.13,3.539l6.691-5.388c0.203-0.164,0.247-0.457,0.099-0.672
		c-0.124-0.182-0.349-0.256-0.552-0.197l0.419-0.284c0.223-0.151,0.286-0.452,0.144-0.68c-0.144-0.228-0.439-0.301-0.674-0.167
		l-7.06,4.076l7.633-6.542c0.196-0.168,0.232-0.458,0.083-0.669c-0.149-0.212-0.438-0.273-0.658-0.144l-6.267,3.618l6.83-5.543
		c0.202-0.165,0.244-0.457,0.097-0.671c-0.148-0.216-0.438-0.281-0.662-0.15l-6.333,3.657l6.896-5.621
		c0.202-0.165,0.244-0.457,0.097-0.671c-0.147-0.215-0.438-0.281-0.662-0.149l-1.706,0.985l2.241-1.566
		c0.22-0.153,0.279-0.452,0.136-0.678s-0.439-0.298-0.672-0.165l-3.011,1.738l3.551-2.55c0.216-0.156,0.272-0.454,0.128-0.677
		c-0.145-0.225-0.441-0.296-0.67-0.162l-3.007,1.736l3.548-2.547c0.216-0.156,0.272-0.454,0.128-0.677
		c-0.145-0.225-0.442-0.295-0.67-0.162l-7.025,4.056l7.599-6.496c0.196-0.167,0.232-0.458,0.083-0.668
		c-0.148-0.21-0.435-0.273-0.658-0.145l-5.944,3.432l6.504-5.186c0.205-0.163,0.249-0.457,0.102-0.673
		c-0.148-0.216-0.438-0.282-0.663-0.151l-7.389,4.266l5.461-4.189c0.209-0.16,0.258-0.455,0.111-0.674
		c-0.147-0.219-0.439-0.287-0.666-0.155l-5.402,3.119l3.242-2.272c0.219-0.154,0.278-0.453,0.135-0.678
		c-0.146-0.226-0.442-0.298-0.672-0.165l-7.07,4.082l4.02-3.254c0.203-0.164,0.245-0.457,0.098-0.672
		c-0.148-0.215-0.438-0.281-0.662-0.15l-5.69,3.286l2.485-2.493c0.177-0.178,0.194-0.459,0.042-0.658
		c-0.153-0.199-0.431-0.251-0.646-0.128l-4.23,2.442l0.325-1.917c0.032-0.191-0.049-0.383-0.208-0.494
		c-0.157-0.109-0.365-0.119-0.535-0.022l-0.502,0.29c-0.239,0.138-0.321,0.444-0.184,0.683c0.068,0.118,0.177,0.197,0.298,0.231
		l-0.357,2.111c-0.032,0.191,0.049,0.383,0.208,0.494c0.158,0.112,0.368,0.12,0.535,0.022l1.882-1.086l-2.486,2.494
		c-0.177,0.178-0.194,0.459-0.042,0.658c0.153,0.199,0.432,0.252,0.646,0.128l3.454-1.995l-4.019,3.254
		c-0.203,0.164-0.245,0.457-0.098,0.672c0.148,0.215,0.437,0.281,0.662,0.15l2.704-1.562l-3.241,2.271
		c-0.219,0.154-0.278,0.453-0.135,0.678c0.146,0.226,0.442,0.298,0.672,0.165l8.658-4.999l-5.462,4.19
		c-0.209,0.16-0.258,0.455-0.111,0.674c0.147,0.219,0.439,0.288,0.666,0.155l8.222-4.747l-6.504,5.186
		c-0.205,0.163-0.249,0.457-0.102,0.673c0.147,0.215,0.437,0.281,0.663,0.151l7.025-4.057l-7.599,6.496
		c-0.196,0.167-0.232,0.458-0.083,0.668c0.149,0.212,0.437,0.274,0.658,0.145l3.005-1.735l-3.547,2.547
		c-0.216,0.156-0.272,0.454-0.128,0.677c0.144,0.224,0.44,0.294,0.67,0.162l3.007-1.736l-3.548,2.547
		c-0.216,0.156-0.272,0.454-0.128,0.677c0.144,0.224,0.44,0.294,0.67,0.162l1.706-0.985l-2.241,1.566
		c-0.22,0.153-0.279,0.452-0.136,0.678c0.144,0.227,0.439,0.298,0.672,0.165l6.334-3.657l-6.897,5.621
		c-0.202,0.165-0.244,0.457-0.097,0.671c0.148,0.215,0.437,0.281,0.662,0.149l6.266-3.618l-6.83,5.543
		c-0.202,0.165-0.244,0.457-0.097,0.671c0.148,0.215,0.438,0.28,0.662,0.15l7.061-4.076l-7.634,6.542
		c-0.196,0.168-0.232,0.458-0.083,0.669c0.126,0.178,0.351,0.252,0.549,0.191l-0.42,0.285c-0.223,0.151-0.286,0.452-0.144,0.68
		c0.145,0.229,0.44,0.303,0.674,0.167l6.127-3.538l-6.689,5.387c-0.203,0.164-0.247,0.457-0.099,0.672
		c0.146,0.215,0.438,0.281,0.662,0.15l5.495-3.173l-6.052,4.719c-0.207,0.162-0.254,0.456-0.107,0.674
		c0.148,0.218,0.438,0.286,0.665,0.154l2.865-1.654l-3.405,2.437c-0.217,0.155-0.273,0.454-0.129,0.678
		c0.144,0.224,0.44,0.295,0.67,0.162l7.132-4.118l-7.706,6.642c-0.195,0.168-0.23,0.458-0.081,0.668
		c0.149,0.21,0.436,0.271,0.657,0.144l6.879-3.972l-7.449,6.295c-0.198,0.167-0.235,0.458-0.087,0.669
		c0.149,0.212,0.438,0.276,0.659,0.146l6.656-3.843l-7.225,6.01c-0.2,0.166-0.239,0.457-0.091,0.67
		c0.148,0.213,0.438,0.277,0.66,0.147l6.015-3.472l-6.575,5.259c-0.204,0.164-0.248,0.457-0.101,0.672s0.437,0.282,0.663,0.151
		l1.019-0.588l-1.553,1.072c-0.221,0.153-0.282,0.452-0.139,0.679c0.144,0.228,0.439,0.301,0.673,0.166l6.79-3.92l-7.359,6.178
		c-0.199,0.167-0.237,0.458-0.088,0.669s0.436,0.276,0.659,0.146l14.097-8.139l-14.623,9.747c-0.225,0.149-0.29,0.451-0.147,0.68
		c0.143,0.229,0.439,0.303,0.675,0.169l16.28-9.399l-16.818,12c-0.218,0.155-0.274,0.453-0.131,0.678
		c0.145,0.225,0.441,0.294,0.671,0.163l12.701-7.333l-13.238,9.367c-0.218,0.154-0.276,0.453-0.132,0.678
		c0.137,0.215,0.413,0.289,0.636,0.182l-0.482,0.308c-0.229,0.146-0.3,0.449-0.159,0.681c0.143,0.232,0.442,0.31,0.678,0.173
		l11.378-6.569l-11.929,9.034c-0.211,0.159-0.261,0.455-0.115,0.675c0.146,0.22,0.439,0.288,0.667,0.157l8.708-5.027l-6.514,5.008
		c-0.209,0.161-0.258,0.456-0.111,0.674c0.097,0.144,0.255,0.222,0.416,0.222c0.085,0,0.172-0.021,0.25-0.067l6.419-3.706
		l-3.13,2.894c-0.187,0.173-0.214,0.459-0.063,0.664c0.151,0.207,0.436,0.265,0.652,0.137l2.031-1.173l-0.337,0.418
		c-0.15,0.188-0.146,0.456,0.01,0.639c0.156,0.184,0.423,0.226,0.63,0.108l0.771-0.444c0.239-0.138,0.321-0.444,0.184-0.683
		c-0.001,0-0.001-0.001-0.002-0.002l1.2-1.492c0.15-0.188,0.146-0.456-0.01-0.639c-0.158-0.184-0.423-0.228-0.63-0.108l-0.474,0.274
		l3.129-2.894c0.187-0.173,0.214-0.459,0.063-0.664c-0.15-0.205-0.434-0.263-0.652-0.137l-3.733,2.156l6.511-5.006
		c0.209-0.161,0.258-0.456,0.111-0.674c-0.148-0.219-0.439-0.287-0.666-0.155l-8.32,4.803l11.93-9.034
		c0.211-0.159,0.261-0.455,0.115-0.675c-0.104-0.156-0.279-0.236-0.454-0.222l1.4-0.894c0.229-0.146,0.3-0.449,0.159-0.681
		c-0.142-0.232-0.44-0.309-0.678-0.173l-10.032,5.792l13.238-9.368c0.218-0.154,0.276-0.453,0.132-0.678
		c-0.143-0.225-0.44-0.297-0.671-0.164l-13.084,7.554l16.816-11.999c0.218-0.155,0.274-0.453,0.131-0.678
		c-0.146-0.225-0.442-0.296-0.671-0.163l-11.826,6.828l14.632-9.753c0.225-0.15,0.29-0.451,0.147-0.68
		c-0.144-0.23-0.44-0.305-0.675-0.169l-22.616,13.058l7.018-5.892c-0.008,0.104,0.008,0.21,0.068,0.304
		c0.095,0.151,0.257,0.234,0.423,0.234c0.085,0,0.171-0.021,0.25-0.067l17.301-9.989c0.239-0.138,0.321-0.444,0.183-0.683
		c-0.138-0.24-0.443-0.322-0.683-0.183l-5.761,3.326l8.155-5.563c0.222-0.151,0.284-0.452,0.141-0.679
		c-0.143-0.228-0.438-0.3-0.673-0.167l-0.541,0.313l2.283-1.48c0.227-0.147,0.296-0.449,0.154-0.681
		c-0.143-0.231-0.441-0.307-0.677-0.172l-3.706,2.14l5.941-3.952c-0.001,0.094,0.015,0.188,0.068,0.273
		c0.146,0.227,0.44,0.3,0.673,0.166l5.822-3.362l-6.381,5.053c-0.205,0.163-0.25,0.457-0.104,0.673
		c0.147,0.217,0.438,0.283,0.664,0.152l6.671-3.852l-7.239,6.026c-0.199,0.166-0.238,0.458-0.09,0.67s0.437,0.277,0.66,0.147
		l5.659-3.268l-6.216,4.884c-0.207,0.162-0.253,0.456-0.105,0.673c0.146,0.217,0.438,0.283,0.664,0.153l5.171-2.985l-5.724,4.399
		c-0.209,0.161-0.258,0.456-0.111,0.674c0.147,0.219,0.44,0.287,0.666,0.155l7.102-4.1l-7.676,6.597
		c-0.195,0.168-0.231,0.458-0.082,0.668c0.151,0.21,0.438,0.271,0.658,0.144l4.473-2.583l-5.021,3.759
		c-0.212,0.159-0.264,0.455-0.117,0.676c0.146,0.221,0.438,0.29,0.667,0.158l6.072-3.506l-6.634,5.324
		c-0.204,0.164-0.248,0.457-0.101,0.672c0.147,0.215,0.438,0.28,0.663,0.151l2.692-1.555l-3.23,2.303
		c-0.218,0.155-0.274,0.453-0.131,0.678c0.143,0.22,0.427,0.292,0.654,0.172l-0.515,0.35c-0.223,0.151-0.285,0.452-0.143,0.679
		c0.144,0.229,0.441,0.303,0.674,0.167l5.965-3.444l-6.524,5.207c-0.205,0.163-0.249,0.456-0.102,0.672
		c0.147,0.216,0.437,0.281,0.663,0.151l5.252-3.032l-5.806,4.478c-0.208,0.161-0.256,0.456-0.109,0.674
		c0.146,0.219,0.438,0.286,0.665,0.155l3.723-2.149l-4.267,3.122c-0.215,0.157-0.269,0.454-0.124,0.676
		c0.146,0.223,0.441,0.294,0.669,0.16l7.269-4.197l-7.844,6.84c-0.194,0.169-0.229,0.458-0.079,0.667
		c0.151,0.21,0.438,0.271,0.657,0.143l5.724-3.305l-6.281,4.952c-0.206,0.162-0.251,0.456-0.104,0.673
		c0.147,0.217,0.438,0.284,0.664,0.153l4.655-2.688l-5.205,3.923c-0.211,0.159-0.262,0.455-0.116,0.675
		c0.146,0.221,0.439,0.288,0.667,0.157l6.93-4.001l-7.501,6.364c-0.197,0.167-0.234,0.458-0.086,0.669
		c0.151,0.212,0.438,0.275,0.659,0.145l5.874-3.391l-5.57,4.313c-0.208,0.161-0.256,0.456-0.109,0.674
		c0.096,0.143,0.254,0.221,0.415,0.221c0.085,0,0.172-0.021,0.25-0.067l11.146-6.436l-6.28,5.621
		c-0.191,0.171-0.223,0.458-0.072,0.666c0.152,0.208,0.438,0.268,0.655,0.14l6.033-3.483l-3.412,2.65
		c-0.208,0.161-0.255,0.456-0.108,0.674c0.146,0.218,0.438,0.286,0.665,0.154l5.68-3.279l-2.562,2.48
		c-0.182,0.176-0.203,0.459-0.052,0.661c0.152,0.202,0.433,0.257,0.649,0.132l4.572-2.64l-0.33,2.122
		c-0.029,0.19,0.053,0.38,0.212,0.489s0.367,0.115,0.532,0.021l0.5-0.289C398.708,82.529,398.79,82.224,398.651,81.984z"/>
	<path fill="#FFFFFF" d="M353.118,0.78l-0.266,1.1c-0.047,0.194,0.026,0.398,0.187,0.518c0.162,0.12,0.377,0.133,0.55,0.033
		l0.817-0.472l-1.314,1.504c-0.16,0.184-0.165,0.458-0.009,0.646c0.117,0.143,0.297,0.206,0.471,0.175l-0.3,0.228
		c-0.211,0.16-0.261,0.455-0.115,0.675c0.147,0.22,0.439,0.289,0.667,0.157l4.902-2.83l-4.835,4.625
		c-0.183,0.175-0.206,0.459-0.055,0.661c0.153,0.204,0.434,0.259,0.65,0.133l3.809-2.199l-3.547,3.03
		c-0.196,0.168-0.232,0.458-0.083,0.669c0.149,0.212,0.437,0.272,0.658,0.145l3.142-1.814l-2.746,2.286
		c-0.2,0.166-0.239,0.457-0.091,0.67s0.437,0.276,0.66,0.147l4.184-2.416l-3.275,2.935c-0.19,0.171-0.221,0.458-0.071,0.666
		c0.152,0.208,0.437,0.267,0.655,0.14l6.548-3.78l-4.347,4.344c-0.178,0.177-0.196,0.459-0.043,0.658
		c0.154,0.201,0.433,0.253,0.646,0.129l8.35-4.82l-6.712,4.435c-0.226,0.149-0.292,0.45-0.149,0.68
		c0.141,0.229,0.438,0.303,0.675,0.17l7.533-4.349l-5.562,3.701c-0.225,0.149-0.29,0.45-0.147,0.68
		c0.143,0.23,0.439,0.303,0.675,0.169l12.819-7.401l-8.267,6.609c-0.204,0.164-0.248,0.457-0.101,0.672
		c0.097,0.141,0.253,0.218,0.413,0.218c0.085,0,0.172-0.021,0.25-0.067l10.118-5.842l-3.882,4.241
		c-0.166,0.182-0.175,0.458-0.021,0.65c0.155,0.193,0.428,0.243,0.64,0.12l3.492-2.016c0.239-0.138,0.321-0.444,0.183-0.683
		c-0.138-0.239-0.444-0.321-0.683-0.183l-0.686,0.396l3.883-4.242c0.166-0.182,0.175-0.458,0.021-0.65
		c-0.155-0.193-0.428-0.242-0.64-0.12l-7.195,4.155l8.266-6.609c0.204-0.164,0.248-0.457,0.101-0.672
		c-0.148-0.216-0.438-0.283-0.663-0.151l-4.933,2.848l5.563-3.703c0.225-0.149,0.29-0.45,0.147-0.68
		c-0.144-0.23-0.441-0.304-0.675-0.169l-6.799,3.925l6.71-4.434c0.226-0.149,0.292-0.45,0.149-0.68
		c-0.142-0.23-0.441-0.306-0.675-0.17l-0.543,0.314c-0.011-0.043-0.019-0.086-0.043-0.127c-0.138-0.241-0.445-0.322-0.683-0.183
		l-4.532,2.617l1.941-1.808c0.187-0.173,0.213-0.458,0.062-0.663c-0.152-0.205-0.435-0.262-0.652-0.136l-3.421,1.975l0.351-1.409
		c0.048-0.195-0.024-0.399-0.185-0.52c-0.161-0.121-0.376-0.134-0.551-0.034L374-0.109c-0.239,0.138-0.321,0.444-0.183,0.683
		c0.057,0.099,0.143,0.171,0.241,0.212l-0.416,1.673c-0.048,0.195,0.024,0.399,0.185,0.52s0.376,0.134,0.551,0.034l0.627-0.362
		l-1.941,1.808c-0.187,0.173-0.213,0.458-0.062,0.663c0.016,0.022,0.041,0.032,0.061,0.051l-9.703,5.602l4.347-4.345
		c0.178-0.177,0.196-0.459,0.043-0.658c-0.153-0.2-0.431-0.252-0.646-0.129l-5.673,3.275l3.275-2.934
		c0.19-0.171,0.221-0.458,0.071-0.666c-0.151-0.207-0.435-0.267-0.655-0.14l-3.282,1.895l2.748-2.287
		c0.2-0.166,0.239-0.457,0.091-0.67c-0.148-0.213-0.437-0.277-0.66-0.147l-3.504,2.023l3.546-3.029
		c0.196-0.168,0.232-0.458,0.083-0.669c-0.148-0.211-0.436-0.273-0.658-0.145l-4.919,2.84l4.835-4.625
		c0.183-0.175,0.206-0.459,0.055-0.661c-0.153-0.204-0.435-0.259-0.65-0.133l-1.589,0.917l0.104-0.08
		c0.211-0.16,0.261-0.455,0.115-0.675c-0.148-0.22-0.44-0.289-0.667-0.157l-3.941,2.275l1.314-1.503
		c0.16-0.184,0.165-0.458,0.01-0.646c-0.156-0.189-0.427-0.236-0.637-0.116l-2.416,1.395l0.202-0.835
		c0.047-0.194-0.026-0.398-0.187-0.518c-0.161-0.119-0.378-0.133-0.55-0.033l-0.503,0.291c-0.239,0.138-0.321,0.444-0.183,0.683
		C352.936,0.667,353.021,0.739,353.118,0.78z"/>
</g>
<path fill="#FFFFFF" d="M463.936,81.844c-0.064-0.113-0.167-0.19-0.282-0.227l0.31-0.782c0.078-0.198,0.022-0.424-0.138-0.563
	c-0.162-0.139-0.393-0.161-0.577-0.055L462.24,80.8l1.644-2.091c0.147-0.188,0.142-0.456-0.016-0.637
	c-0.156-0.182-0.421-0.224-0.628-0.105l-3.738,2.158l4.328-4.241c0.181-0.176,0.201-0.458,0.049-0.659
	c-0.153-0.202-0.434-0.256-0.648-0.131l-7.876,4.547l6.276-5.566c0.191-0.17,0.224-0.458,0.073-0.667s-0.436-0.268-0.655-0.141
	l-9.112,5.261l5.659-4.417c0.207-0.162,0.254-0.456,0.107-0.673c-0.147-0.218-0.438-0.286-0.665-0.154l-5.564,3.213l5.368-4.071
	c0.211-0.16,0.261-0.455,0.115-0.675c-0.147-0.22-0.44-0.29-0.667-0.157l-2.014,1.163l2.55-1.792
	c0.22-0.154,0.278-0.453,0.135-0.678c-0.146-0.226-0.439-0.298-0.672-0.164l-6.532,3.771l7.1-5.859
	c0.2-0.166,0.24-0.457,0.093-0.671c-0.149-0.214-0.438-0.278-0.661-0.148l-2.161,1.248l2.698-1.902
	c0.219-0.154,0.277-0.453,0.133-0.678c-0.144-0.225-0.438-0.297-0.671-0.164l-3.138,1.812l3.679-2.651
	c0.217-0.156,0.272-0.454,0.128-0.677c-0.146-0.224-0.441-0.295-0.67-0.162l-6.294,3.634l6.857-5.574
	c0.202-0.165,0.244-0.457,0.097-0.672c-0.148-0.215-0.437-0.279-0.662-0.149l-6.854,3.957l7.425-6.263
	c0.198-0.167,0.235-0.458,0.087-0.669c-0.148-0.212-0.436-0.276-0.659-0.146l-3.747,2.164l4.291-3.142
	c0.215-0.157,0.269-0.454,0.124-0.676c-0.146-0.223-0.44-0.292-0.669-0.16l-5.535,3.195l6.091-4.757
	c0.207-0.162,0.254-0.456,0.106-0.674c-0.146-0.217-0.438-0.285-0.664-0.153l-7.19,4.151l7.767-6.725
	c0.195-0.168,0.229-0.458,0.08-0.668c-0.149-0.21-0.436-0.272-0.657-0.143l-3.608,2.083l4.152-3.028
	c0.215-0.156,0.27-0.454,0.124-0.676c-0.146-0.223-0.44-0.292-0.669-0.161l-4.045,2.335l4.591-3.39
	c0.214-0.158,0.267-0.455,0.121-0.676s-0.438-0.291-0.668-0.159l-7.215,4.166l7.79-6.757c0.195-0.169,0.229-0.458,0.08-0.668
	c-0.149-0.211-0.437-0.27-0.657-0.143l-7.528,4.347l8.072-5.915c0.214-0.157,0.268-0.454,0.123-0.676
	c-0.146-0.223-0.44-0.292-0.669-0.16l-11.42,6.593l11.963-8.698c0.215-0.156,0.271-0.454,0.125-0.677
	c-0.145-0.224-0.44-0.294-0.669-0.161l-13.7,7.91l14.231-9.774c0.19-0.13,0.253-0.367,0.18-0.575c0.049-0.134,0.047-0.287-0.03-0.42
	c-0.138-0.241-0.444-0.321-0.683-0.183l-2.789,1.61l3.329-2.38c0.217-0.155,0.273-0.453,0.129-0.677
	c-0.144-0.225-0.441-0.296-0.67-0.163l-1.333,0.77l1.868-1.297c0.22-0.153,0.28-0.452,0.137-0.679s-0.438-0.299-0.672-0.165
	l-6.698,3.867l7.267-6.072c0.199-0.167,0.238-0.458,0.09-0.67c-0.148-0.213-0.437-0.277-0.66-0.147l-3.266,1.886l3.808-2.753
	c0.216-0.156,0.271-0.454,0.127-0.677c-0.14-0.214-0.415-0.288-0.64-0.177l0.5-0.34c0.223-0.151,0.285-0.452,0.143-0.679
	c-0.143-0.227-0.439-0.301-0.674-0.167l-2.589,1.495l3.128-2.226c0.218-0.155,0.275-0.453,0.131-0.677
	c-0.146-0.226-0.442-0.297-0.671-0.163l-5.343,3.085l5.898-4.571c0.207-0.161,0.255-0.456,0.108-0.674
	c-0.146-0.219-0.438-0.286-0.665-0.154l-5.196,3l5.75-4.428c0.209-0.161,0.257-0.456,0.11-0.674
	c-0.146-0.218-0.439-0.286-0.665-0.155l-5.251,3.032l5.806-4.479c0.208-0.161,0.256-0.456,0.109-0.674
	c-0.146-0.218-0.438-0.286-0.665-0.155l-4.741,2.737l3.971-2.837c0.217-0.155,0.273-0.453,0.13-0.677
	c-0.146-0.225-0.442-0.297-0.671-0.163l-11.576,6.684l6.265-5.876c0.186-0.174,0.211-0.459,0.06-0.663
	c-0.152-0.205-0.434-0.261-0.651-0.135l-8.293,4.788l3.911-3.998c0.175-0.179,0.19-0.459,0.037-0.656
	c-0.153-0.199-0.43-0.25-0.645-0.126l-5.593,3.229l0.357-2.721c0.024-0.188-0.061-0.375-0.219-0.481
	c-0.158-0.104-0.363-0.111-0.527-0.017l-0.5,0.289c-0.239,0.138-0.321,0.444-0.183,0.683c0.073,0.127,0.193,0.209,0.326,0.239
	l-0.378,2.883c-0.024,0.188,0.061,0.375,0.219,0.481c0.16,0.105,0.363,0.112,0.527,0.017l3.313-1.914l-3.911,3.998
	c-0.175,0.179-0.19,0.459-0.037,0.656c0.153,0.198,0.431,0.249,0.645,0.126l7.697-4.444l-6.265,5.877
	c-0.186,0.174-0.211,0.459-0.06,0.663c0.152,0.206,0.435,0.261,0.651,0.135l6.383-3.686l-3.965,2.833
	c-0.217,0.155-0.273,0.453-0.13,0.677c0.146,0.225,0.441,0.295,0.671,0.163l7.21-4.163l-5.807,4.48
	c-0.208,0.161-0.256,0.456-0.109,0.674c0.146,0.219,0.438,0.286,0.665,0.155l5.2-3.002l-5.751,4.429
	c-0.209,0.161-0.257,0.456-0.11,0.674s0.438,0.286,0.665,0.155l5.348-3.088l-5.899,4.572c-0.207,0.161-0.255,0.456-0.108,0.674
	c0.146,0.219,0.439,0.286,0.665,0.154l2.585-1.493l-3.123,2.222c-0.218,0.155-0.275,0.453-0.131,0.677
	c0.14,0.217,0.421,0.291,0.646,0.177l-0.503,0.342c-0.223,0.151-0.285,0.452-0.143,0.679c0.144,0.229,0.44,0.302,0.674,0.167
	l3.266-1.886l-3.806,2.752c-0.216,0.156-0.271,0.454-0.127,0.677c0.145,0.222,0.439,0.294,0.67,0.161l6.701-3.869l-7.267,6.072
	c-0.199,0.167-0.238,0.458-0.09,0.67c0.149,0.213,0.437,0.277,0.66,0.147l1.341-0.774l-1.873,1.301
	c-0.221,0.153-0.28,0.452-0.137,0.679c0.144,0.226,0.442,0.298,0.672,0.165l2.789-1.61l-3.327,2.378
	c-0.147,0.105-0.214,0.277-0.2,0.446l-12.015,6.937l7.773-6.292c0.203-0.164,0.245-0.457,0.098-0.672
	c-0.148-0.215-0.438-0.28-0.662-0.15l-0.04,0.023c-0.154-0.105-0.358-0.122-0.53-0.022l-21.109,12.187l15.654-11.341
	c0.216-0.156,0.271-0.454,0.127-0.677c-0.146-0.224-0.441-0.295-0.67-0.161l-16.177,9.339l11.368-8.499
	c0.212-0.158,0.264-0.455,0.117-0.676s-0.44-0.291-0.667-0.158l-12.239,7.067l7.862-6.236c0.205-0.163,0.25-0.456,0.103-0.673
	c-0.146-0.217-0.438-0.284-0.663-0.152l-2.583,1.492l1.667-1.154c0.221-0.152,0.281-0.452,0.139-0.679
	c-0.145-0.226-0.439-0.299-0.673-0.166l-6.331,3.655l6.894-5.613c0.202-0.165,0.244-0.457,0.097-0.671
	c-0.147-0.215-0.438-0.28-0.662-0.149l-3.894,2.248l4.438-3.262c0.214-0.157,0.268-0.454,0.123-0.676
	c-0.146-0.222-0.44-0.292-0.669-0.16l-2.266,1.309l2.802-1.98c0.219-0.154,0.277-0.453,0.133-0.678
	c-0.144-0.225-0.441-0.297-0.671-0.164l-5.591,3.228l6.146-4.813c0.206-0.162,0.253-0.456,0.105-0.673
	c-0.146-0.217-0.438-0.285-0.664-0.153l-3.861,2.229l4.405-3.236c0.214-0.157,0.268-0.454,0.123-0.676
	c-0.146-0.222-0.44-0.292-0.669-0.16l-6.989,4.035l7.56-6.441c0.197-0.167,0.233-0.458,0.084-0.668
	c-0.148-0.211-0.436-0.273-0.658-0.145l-4.171,2.408l4.717-3.497c0.213-0.158,0.266-0.455,0.12-0.676
	c-0.145-0.221-0.439-0.291-0.668-0.159l-0.515,0.297l1.045-0.716c0.222-0.152,0.284-0.452,0.141-0.679
	c-0.143-0.227-0.438-0.299-0.673-0.167l-6.509,3.758l7.073-5.827c0.2-0.165,0.241-0.457,0.093-0.671s-0.438-0.278-0.661-0.148
	l-0.362,0.209l0.894-0.611c0.222-0.151,0.284-0.452,0.141-0.679c-0.143-0.228-0.439-0.3-0.673-0.167l-2.329,1.345l2.866-2.027
	c0.218-0.154,0.276-0.453,0.132-0.678c-0.143-0.225-0.44-0.297-0.671-0.164l-5.097,2.943l5.648-4.33
	c0.209-0.161,0.258-0.456,0.111-0.675s-0.439-0.287-0.666-0.155l-10.825,6.25l6.275-5.595c0.191-0.17,0.223-0.458,0.072-0.666
	c-0.149-0.208-0.436-0.267-0.655-0.14l-8.711,5.029l4.965-4.208c0.197-0.167,0.234-0.458,0.086-0.669
	c-0.148-0.212-0.436-0.274-0.659-0.146l-6.47,3.735l2.665-2.96c0.165-0.183,0.172-0.458,0.018-0.649
	c-0.155-0.193-0.429-0.241-0.639-0.119l-3.842,2.218l0.308-1.688c0.034-0.191-0.045-0.386-0.204-0.498
	c-0.159-0.111-0.37-0.12-0.538-0.024l-0.501,0.29c-0.239,0.138-0.321,0.444-0.183,0.683c0.065,0.114,0.169,0.192,0.285,0.228
	l-0.345,1.894c-0.034,0.191,0.045,0.386,0.204,0.498c0.158,0.111,0.369,0.122,0.538,0.024l2.043-1.18l-2.665,2.96
	c-0.165,0.183-0.172,0.458-0.018,0.649c0.155,0.192,0.427,0.239,0.639,0.119l4.392-2.535l-4.965,4.208
	c-0.197,0.167-0.234,0.458-0.086,0.669c0.149,0.212,0.437,0.276,0.659,0.146l9.306-5.372l-6.276,5.596
	c-0.191,0.17-0.223,0.458-0.072,0.666c0.151,0.209,0.437,0.269,0.655,0.14l8.416-4.859L409.4,26.02
	c-0.209,0.161-0.258,0.456-0.111,0.675c0.146,0.219,0.44,0.287,0.666,0.155l2.328-1.344l-2.866,2.027
	c-0.218,0.154-0.276,0.453-0.132,0.678c0.144,0.226,0.44,0.298,0.671,0.164l0.362-0.209l-0.894,0.611
	c-0.222,0.151-0.284,0.452-0.141,0.679c0.144,0.229,0.44,0.302,0.673,0.167l6.505-3.756l-7.072,5.826
	c-0.2,0.165-0.241,0.457-0.093,0.671c0.148,0.213,0.438,0.277,0.661,0.148l0.513-0.296l-1.044,0.716
	c-0.222,0.152-0.284,0.452-0.141,0.679c0.144,0.227,0.439,0.301,0.673,0.167l4.169-2.407l-4.716,3.497
	c-0.213,0.158-0.266,0.455-0.12,0.676s0.44,0.292,0.668,0.159l6.987-4.034l-7.56,6.441c-0.197,0.167-0.233,0.458-0.084,0.668
	c0.149,0.212,0.437,0.275,0.658,0.145l3.862-2.23l-4.407,3.237c-0.214,0.157-0.268,0.454-0.123,0.676
	c0.146,0.223,0.441,0.293,0.669,0.16l5.588-3.227l-6.146,4.812c-0.206,0.162-0.253,0.456-0.105,0.673
	c0.146,0.218,0.438,0.284,0.664,0.153l2.268-1.309l-2.805,1.981c-0.219,0.154-0.277,0.453-0.133,0.678
	c0.144,0.225,0.441,0.297,0.671,0.164l3.893-2.248l-4.438,3.262c-0.214,0.157-0.268,0.454-0.123,0.676
	c0.146,0.223,0.441,0.293,0.669,0.16l6.329-3.654l-6.894,5.613c-0.202,0.165-0.244,0.457-0.097,0.671
	c0.148,0.215,0.438,0.28,0.662,0.149l1.136-0.656l-1.669,1.155c-0.221,0.152-0.282,0.452-0.139,0.679
	c0.146,0.227,0.439,0.3,0.673,0.166l7.304-4.217l-7.862,6.236c-0.205,0.163-0.25,0.456-0.103,0.673
	c0.146,0.217,0.438,0.282,0.663,0.152l10.817-6.246l-11.366,8.498c-0.212,0.158-0.264,0.455-0.117,0.676
	c0.146,0.221,0.438,0.289,0.667,0.158l15.113-8.726L409.43,59.208c-0.216,0.156-0.271,0.454-0.127,0.677s0.44,0.294,0.67,0.161
	l3.531-2.039l-4.045,2.519c-0.231,0.144-0.305,0.447-0.164,0.682c0.141,0.234,0.44,0.312,0.679,0.176l3.048-1.76l-3.589,2.582
	c-0.216,0.155-0.272,0.453-0.128,0.677c0.145,0.224,0.439,0.294,0.67,0.162l6.844-3.951l-7.415,6.261
	c-0.198,0.167-0.235,0.458-0.087,0.669c0.149,0.212,0.437,0.275,0.659,0.146l2.612-1.508l-3.151,2.244
	c-0.218,0.155-0.274,0.453-0.131,0.678c0.145,0.224,0.441,0.295,0.671,0.163l6.65-3.839l-7.219,6.009
	c-0.199,0.166-0.238,0.458-0.09,0.67c0.149,0.212,0.437,0.278,0.66,0.147l2.279-1.316l-2.817,1.992
	c-0.218,0.154-0.276,0.453-0.132,0.678c0.144,0.225,0.441,0.298,0.671,0.164l1.385-0.799l-1.919,1.333
	c-0.221,0.153-0.28,0.452-0.137,0.679c0.144,0.226,0.441,0.299,0.672,0.165l2.262-1.306l-2.8,1.979
	c-0.219,0.154-0.277,0.453-0.133,0.678c0.144,0.225,0.44,0.298,0.671,0.164l0.866-0.5l-1.399,0.964
	c-0.221,0.152-0.282,0.452-0.139,0.679s0.44,0.301,0.673,0.166l3.861-2.229l-4.406,3.237c-0.214,0.157-0.268,0.454-0.123,0.676
	c0.146,0.223,0.442,0.292,0.669,0.16l4.254-2.456l-4.802,3.57c-0.212,0.158-0.265,0.455-0.119,0.676
	c0.146,0.222,0.44,0.292,0.668,0.159l3.349-1.933l-3.891,2.818c-0.216,0.156-0.271,0.454-0.127,0.677
	c0.145,0.223,0.44,0.294,0.67,0.161l9.144-5.279l-6.257,5.485c-0.193,0.169-0.227,0.458-0.076,0.667
	c0.097,0.136,0.25,0.209,0.406,0.209c0.086,0,0.172-0.021,0.25-0.067l9.822-5.671l-5.934,4.843
	c-0.201,0.165-0.243,0.457-0.095,0.671c0.146,0.214,0.437,0.279,0.661,0.149l5.943-3.431l-3.078,2.611
	c-0.197,0.167-0.234,0.458-0.086,0.669c0.151,0.212,0.438,0.275,0.659,0.145l5.929-3.423l-1.305,2.768
	c-0.094,0.198-0.047,0.433,0.113,0.582c0.161,0.148,0.399,0.174,0.589,0.065l1.996-1.153c0.239-0.138,0.321-0.444,0.183-0.683
	c-0.138-0.241-0.444-0.321-0.683-0.183l-0.612,0.354l1.304-2.767c0.094-0.198,0.047-0.433-0.113-0.582
	c-0.161-0.147-0.399-0.173-0.589-0.065l-2.511,1.45l3.078-2.611c0.197-0.167,0.234-0.458,0.086-0.669
	c-0.148-0.211-0.436-0.274-0.659-0.145l-5.376,3.104l5.934-4.843c0.201-0.165,0.243-0.457,0.095-0.671
	c-0.146-0.214-0.437-0.279-0.661-0.149l-10.791,6.23l6.257-5.485c0.193-0.169,0.227-0.458,0.076-0.667
	c-0.149-0.209-0.435-0.269-0.656-0.142l-5.17,2.985l3.893-2.82c0.216-0.156,0.271-0.454,0.127-0.677
	c-0.146-0.223-0.441-0.295-0.67-0.161l-4.256,2.458l4.802-3.571c0.212-0.158,0.265-0.455,0.119-0.676
	c-0.145-0.222-0.439-0.291-0.668-0.159l-3.861,2.229l4.404-3.236c0.214-0.157,0.268-0.454,0.123-0.676
	c-0.146-0.222-0.44-0.291-0.669-0.16l-0.872,0.503l1.404-0.967c0.221-0.152,0.282-0.452,0.139-0.679
	c-0.143-0.227-0.441-0.299-0.673-0.166l-2.265,1.308l2.801-1.979c0.219-0.154,0.277-0.453,0.133-0.678
	c-0.144-0.225-0.441-0.297-0.671-0.164l-1.383,0.798l1.916-1.332c0.221-0.153,0.28-0.452,0.137-0.679s-0.439-0.298-0.672-0.165
	l-2.281,1.317l2.818-1.992c0.218-0.154,0.276-0.453,0.132-0.678c-0.144-0.225-0.44-0.297-0.671-0.164l-6.651,3.84l7.218-6.008
	c0.199-0.166,0.238-0.458,0.09-0.67c-0.149-0.213-0.437-0.276-0.66-0.147l-2.615,1.51l3.152-2.244
	c0.218-0.155,0.274-0.453,0.131-0.678c-0.146-0.225-0.443-0.297-0.671-0.163l-6.847,3.953l7.415-6.261
	c0.198-0.167,0.235-0.458,0.087-0.669c-0.148-0.212-0.436-0.275-0.659-0.146l-3.051,1.762l3.59-2.583
	c0.2-0.144,0.264-0.411,0.156-0.627l10.349-6.444l2.287-1.321l-7.773,6.293c-0.203,0.164-0.245,0.457-0.098,0.672
	c0.148,0.215,0.438,0.281,0.662,0.15l18.401-10.624l-14.229,9.773c-0.222,0.152-0.283,0.452-0.14,0.679
	c0.144,0.228,0.44,0.301,0.673,0.167l16.527-9.542l-11.963,8.697c-0.215,0.156-0.271,0.454-0.125,0.677
	c0.143,0.223,0.438,0.293,0.669,0.161l11.701-6.755l-8.071,5.914c-0.214,0.157-0.268,0.454-0.123,0.676
	c0.146,0.223,0.441,0.293,0.669,0.16l10.958-6.326l-7.79,6.756c-0.195,0.169-0.229,0.458-0.08,0.668s0.436,0.272,0.657,0.143
	l4.049-2.337l-4.594,3.392c-0.214,0.158-0.267,0.455-0.121,0.676c0.146,0.222,0.441,0.293,0.668,0.159l3.609-2.084l-4.152,3.028
	c-0.215,0.156-0.27,0.454-0.124,0.676c0.146,0.224,0.441,0.294,0.669,0.161l7.192-4.153l-7.767,6.725
	c-0.195,0.168-0.229,0.458-0.08,0.668c0.15,0.211,0.438,0.271,0.657,0.143l5.535-3.196l-6.09,4.756
	c-0.207,0.162-0.254,0.456-0.106,0.674c0.146,0.216,0.438,0.285,0.664,0.153l3.751-2.166l-4.294,3.144
	c-0.215,0.157-0.269,0.454-0.124,0.676c0.146,0.223,0.441,0.293,0.669,0.16l6.855-3.958l-7.425,6.263
	c-0.198,0.167-0.235,0.458-0.087,0.669s0.435,0.276,0.659,0.146l6.294-3.634l-6.856,5.573c-0.202,0.165-0.244,0.457-0.097,0.672
	c0.148,0.215,0.438,0.28,0.662,0.149l3.14-1.813l-3.68,2.651c-0.217,0.156-0.272,0.454-0.128,0.677s0.44,0.294,0.67,0.162
	l2.161-1.248l-2.698,1.902c-0.219,0.154-0.277,0.453-0.133,0.678c0.144,0.225,0.44,0.297,0.671,0.164l6.534-3.772l-7.1,5.858
	c-0.2,0.166-0.24,0.457-0.093,0.671c0.149,0.214,0.438,0.278,0.661,0.148l2.019-1.165l-2.554,1.795
	c-0.22,0.154-0.278,0.453-0.135,0.678c0.146,0.226,0.442,0.297,0.672,0.164l4.818-2.782l-5.368,4.071
	c-0.211,0.16-0.261,0.455-0.115,0.675c0.147,0.22,0.438,0.289,0.667,0.157l6.256-3.612l-5.659,4.417
	c-0.207,0.162-0.254,0.456-0.107,0.673c0.097,0.143,0.254,0.221,0.415,0.221c0.085,0,0.172-0.021,0.25-0.067l11.054-6.382
	l-6.276,5.566c-0.191,0.17-0.224,0.458-0.073,0.667c0.151,0.209,0.437,0.269,0.655,0.141l8.726-5.038l-4.327,4.24
	c-0.181,0.176-0.201,0.458-0.049,0.659c0.152,0.201,0.433,0.256,0.648,0.131l4.919-2.84l-1.644,2.091
	c-0.147,0.188-0.142,0.456,0.016,0.637c0.157,0.182,0.423,0.224,0.628,0.105l2.008-1.159l-0.213,0.538
	c-0.078,0.198-0.022,0.424,0.138,0.563c0.162,0.14,0.393,0.16,0.577,0.055l0.746-0.431
	C463.992,82.389,464.074,82.083,463.936,81.844z"/>
<path fill="#FFFFFF" d="M34.631,179.005v-63.474H1.085v63.474H0v-64.56h35.714v64.56H34.631z"/>
<path fill="#FFFFFF" d="M77.039,180c-18.445,0-33.274-14.92-33.274-33.365c0-18.446,14.829-33.274,33.274-33.274
	s33.364,14.828,33.364,33.274C110.403,165.08,95.484,180,77.039,180z M77.039,114.445c-17.812,0-32.19,14.467-32.19,32.19
	c0,17.812,14.377,32.28,32.19,32.28s32.279-14.468,32.279-32.28C109.319,128.913,94.852,114.445,77.039,114.445z"/>
<path fill="#FFFFFF" d="M120.533,159.023v19.982h-1.085v-64.56c12.658,0,22.966,8.138,22.966,22.243
	C142.415,150.794,132.378,159.023,120.533,159.023z M120.533,115.531v42.406c10.489,0,20.797-7.866,20.797-21.249
	C141.33,123.307,131.022,115.531,120.533,115.531z"/>
<path fill="#FFFFFF" d="M162.489,115.531v63.474h-1.086v-63.474H150.01v-1.085h23.87v1.085
	C173.88,115.531,162.489,115.531,162.489,115.531z"/>
<path fill="#FFFFFF" d="M207.88,168.064v10.941h-1.086v-10.941c-14.557-0.271-26.403-12.207-26.403-26.945
	c0-14.828,12.117-26.854,26.946-26.854c14.828,0,26.944,12.026,26.944,26.854C234.282,155.858,222.437,167.793,207.88,168.064z
	 M206.794,115.35c-13.924,0.272-25.317,11.755-25.317,25.769c0,14.015,11.393,25.589,25.317,25.861V115.35z M207.88,115.35v51.63
	c13.924-0.272,25.317-11.845,25.317-25.861C233.197,127.105,221.805,115.621,207.88,115.35z"/>
<path fill="#FFFFFF" d="M273.708,180c-18.447,0-33.276-14.92-33.276-33.365c0-18.446,14.829-33.274,33.276-33.274
	c18.444,0,33.364,14.828,33.364,33.274C307.072,165.08,292.152,180,273.708,180z M273.708,114.445
	c-17.814,0-32.19,14.467-32.19,32.19c0,17.812,14.376,32.28,32.19,32.28c17.811,0,32.278-14.468,32.278-32.28
	C305.986,128.913,291.519,114.445,273.708,114.445z"/>
<path fill="#FFFFFF" d="M338.087,179.005v-63.474H325.61l-12.658,63.474h-1.176l12.75-63.474h-7.325v-1.085h21.973v64.56h-1.087
	V179.005z"/>
<path fill="#FFFFFF" d="M384.656,179.005v-19.44c-6.782,10.85-20.525,19.44-33.547,19.44h-1.083v-64.56h1.083v63.475
	c13.112,0,27.127-9.132,33.547-20.254v-43.221h1.085v64.56H384.656z"/>
<path fill="#FFFFFF" d="M427.065,180c-18.447,0-33.276-14.92-33.276-33.365c0-18.446,14.829-33.274,33.276-33.274
	c18.444,0,33.364,14.828,33.364,33.274C460.429,165.08,445.509,180,427.065,180z M427.065,114.445
	c-17.814,0-32.19,14.467-32.19,32.19c0,17.812,14.376,32.28,32.19,32.28c17.811,0,32.278-14.468,32.278-32.28
	C459.343,128.913,444.876,114.445,427.065,114.445z"/>
</svg>
